<?xml version="1.0" encoding="utf-8"?>
<svg version="1.1" id="Слой_1" xmlns="http://www.w3.org/2000/svg" xmlns:xlink="http://www.w3.org/1999/xlink" x="0px" y="0px"
     viewBox="0 0 500 500" style="enable-background:new 0 0 500 500;" xml:space="preserve">
<style type="text/css">
    .st0{fill:#897464;}
    .st1{fill:#242939;}
    .st2{fill-rule:evenodd;clip-rule:evenodd;fill:#48AE4A;}


</style>
<g id="iconContent"> <path class="st0" d="M380,500H120C53.7,500,0,446.3,0,380V120C0,53.7,53.7,0,120,0h260c66.3,0,120,53.7,120,120v260
      C500,446.3,446.3,500,380,500z"/>
  <g>
      <path class="st1" d="M117.2,0h265.6C447.5,0,500,52.5,500,117.2v265.6c0,64.7-52.5,117.2-117.2,117.2H117.2
          C52.5,500,0,447.5,0,382.8V117.2C0,52.5,52.5,0,117.2,0z"/>
      <path class="st2" d="M250.4,58.6c-7.4,0-14.8,0.6-21.7,1.1c10.3,7,20.1,14.9,29.2,23.5l7.4,6.9l-7.4,7.4
          c-6.5,6.1-12.6,12.6-18.3,19.4v0.6c-1,1.1-2,2.2-2.9,3.4c4.6-0.5,9.1-0.7,13.7-0.6c34.6,0.5,67.5,14.5,91.8,39.1
          c24.3,24.6,37.9,57.8,37.9,92.3c0,34.6-13.6,67.7-37.9,92.4c-24.3,24.6-57.3,38.7-91.8,39.1c-24.2,0.1-48-6.6-68.6-19.4
          c-9.9,1.1-19.8,1.7-29.7,1.7c-4.6,0.1-9.2-0.1-13.7-0.6c0.5,15.5,1.9,31,4,46.3c31.8,21.8,69.5,33.3,108,33.2
          c25.3,0,50.4-5,73.8-14.7c23.4-9.7,44.7-23.9,62.6-41.8c17.9-17.9,32.1-39.2,41.8-62.6c9.7-23.4,14.7-48.5,14.7-73.8
          c0-25.3-5-50.4-14.7-73.8c-9.7-23.4-23.9-44.7-41.8-62.6C369,97.2,347.7,83,324.3,73.3C300.9,63.6,275.8,58.6,250.4,58.6z
           M145.8,89.5c13.2-8.6,27.4-15.5,42.3-20.6c-4.9,8.9-9.3,18.1-13.2,27.4C165.3,93.5,155.6,91.2,145.8,89.5z M135,159.6
          c7.7-0.5,15-1,22.9-1c-8.1,7.7-15,16.6-20.6,26.3c-2.1-8.3-3.6-16.7-4.6-25.1L135,159.6z M128.1,353.6v1.1l-1.7-0.5
          c-14.7-1.2-29.3-3.9-43.4-8l-1.1-0.6l0.6-1.2c4.4-13.7,9.7-27,16-40l0.6-1.2l1.1,0.6c9.6,5.5,19.5,10.4,29.7,14.8l1.2,0.6v1.1
          C129.1,331.4,128.2,342.5,128.1,353.6z M128.1,365v-1.1h-1.2c-12.5-1.3-24.9-3.4-37.2-6.3l-3.4-0.6l1.7,2.9
          c11.2,16.8,24.9,31.9,40.6,44.6l2.3,2.3v-4C129.2,390.2,128.2,377.6,128.1,365z M236.7,91.2c-4,4-8,8.6-12,13.2
          c-0.5,0.6-3.4,4-6.9,8.6c-8-3.8-16.2-7.1-24.3-10.3l-1.4-0.6c4.5-11.1,9.9-21.8,16-32C218,76.6,227.5,83.6,236.7,91.2z M93.8,214.7
          l0.6,1.1l1.1-0.6c9-6.4,18.4-12.3,28-17.7l1.1-0.6v-1.2c-3-11.1-5.1-22.3-6.3-33.7V161h-1.1c-14.2,2.6-28.2,6.4-41.7,11.4l-1.1,0.6
          l0.6,1.2C79.4,188.4,85.8,202,93.8,214.7z M90.3,234.1l1.1-1.1l0.7,1.6c6.2,8.7,12.9,17.1,20,25.1l0.6,0.6l-0.6,1.2
          c-6.3,8.4-12,17.2-17.3,26.3l-0.6,1.1l-1.1-0.6c-11.2-7.3-21.9-15.4-32-24l-1.2-1.2l1.2-1C70.2,252.1,79.9,242.7,90.3,234.1z
           M167.5,355.3h3.4l-2.9-2.3c-10.4-8.4-19.3-18.4-26.3-29.7v-0.6l-2.3-1.2v1.7c-1.4,10-2.1,20.2-2.3,30.3v1.1h1.1
          c2.3,0,4.6,0.1,6.9,0.3c2.3,0.1,4.6,0.3,6.9,0.3H167.5z M169.2,113.5c-3.3,9.2-5.9,18.5-8,28c-9.9,0-19.9,0.5-29.7,1.7
          c-0.7-12.6-0.5-25.2,0.6-37.7C144.6,107.2,157.1,109.9,169.2,113.5z M179.5,140.9c8.6-5.2,17.6-9.6,26.9-13.1
          c-6.7-3.3-13.5-6.2-20.6-8.6C183.5,126,181.2,133.5,179.5,140.9z M88.6,297.7h1.1l-0.5,2.3c-5.2,10.4-9.7,21.1-13.7,32l-1.1,2.9
          l-1.1-2.9c-7.9-17-13.1-35.1-15.5-53.7l-0.6-3.5l2.9,2.3C69.2,284.5,78.8,291.3,88.6,297.7z M114.4,114.6
          c-11.5,11.5-21.5,24.3-29.7,38.3c9.6-2.8,19.9-5.1,30.1-7.3l0.2-0.1C114.4,135.2,114.4,124.9,114.4,114.6z M120.1,246.7v3.4
          l-1.6-2.9c-4.3-4.8-8.3-10.2-12.3-15.5c-1.2-1.7-2.5-3.4-3.7-5l-1.7-1.2l1.2-0.6c7.1-4.9,14.2-9.3,21.3-13.7l0.9-0.6l2.9-1.7
          l-1.1,3.5C122.4,223.5,120.5,235.1,120.1,246.7z M121.8,270.1l-0.6-3.4l-1.7,2.9c-5.2,7.4-10.3,15.4-14.8,23.4l-0.6,1.1l1.2,0.6
          c7.8,4.5,16.1,8.4,24.4,12.3l0.7,0.3l2.9,1.1l-1.1-2.9C127,294.3,123.5,282.4,121.8,270.1z M85.2,223.2l-1.2,0.6
          c-9.3,7-17.8,15.1-25.1,24.1l-2.3,2.3v-3.4c0.4-18.5,3.5-36.7,9.1-54.3l1.2-3.4l1.1,2.9c5,10.4,10.5,20.4,16.6,30.2L85.2,223.2z"/>
  </g>
</g> </svg>