<?xml version="1.0" encoding="utf-8"?>
<!-- Generator: Adobe Illustrator 28.0.0, SVG Export Plug-In . SVG Version: 6.00 Build 0)  -->
<svg version="1.1" id="Слой_1" xmlns="http://www.w3.org/2000/svg" xmlns:xlink="http://www.w3.org/1999/xlink" x="0px" y="0px"
	 viewBox="0 0 500 500" style="enable-background:new 0 0 500 500;" xml:space="preserve">
<style type="text/css">
	.st0{fill:#3A6E70;}
	.st1{fill:#37B9C5;}
</style>
<path class="st0" d="M380,500H120C53.7,500,0,446.3,0,380V120C0,53.7,53.7,0,120,0h260c66.3,0,120,53.7,120,120v260
	C500,446.3,446.3,500,380,500z"/>
<g>
	<g>
		<path class="st1" d="M236.1,57.8c-1.5,0.2-6,0.7-10,1.2c-16.2,1.8-34.5,6.7-50.6,13.5C117.2,96.8,73.3,150.2,61.2,211.5
			c-2.8,14.6-3.5,21.7-3.5,38.5c0,21.7,2.2,36.6,7.9,55.5c18.7,61.8,67.2,110.3,129.2,129c18.7,5.6,33.7,7.8,55.3,7.8
			c21.7,0,36.6-2.2,55.5-7.9c61.8-18.7,110.3-67.2,129-129.2c5.6-18.7,7.8-33.7,7.8-55.3c0-9.2-0.5-19.7-1-23.5
			c-6.2-44.6-24.6-82-55.2-112.6c-30.5-30.4-67.8-48.8-111.5-55C268.7,58,240.8,57.2,236.1,57.8z M173.3,179.2
			c4.1,1.2,6,2.4,8.8,5.2c5.4,5.5,6.6,8.5,6.6,16.7c0,6.2-0.2,7.3-2.1,10.6c-3.6,6-11.8,11.6-17.5,11.7c-4,0.1-3.8-1.7,0.5-6.3
			c5.9-6.1,6.7-8.4,6.7-17.5c-0.1-8.8-1.2-11.8-5.2-14.3c-3.4-2.1-7.1-1.9-12.5,0.6c-14,6.7-29.2,29.1-35.1,52
			c-7.9,30.5,6.1,55,29.1,50.8c6.7-1.2,19.3-7.7,24.8-12.8c4.5-4.2,4.5-4.2,5-9.4c1-10.8,8.6-21.6,18.8-26.6
			c4.7-2.3,5.9-2.5,12.2-2.5c6,0,7.4,0.3,10.3,1.9c9.3,5.3,7.4,17.7-2.7,17.7c-5.9,0-8.9-3-4.6-4.6c4.2-1.5,2.6-7.3-2.2-8.6
			c-5.7-1.5-12.2,2.4-16.3,9.8c-4.9,8.9-5.2,19.6-0.5,24.4c4.6,4.9,10.3,1,14.7-10c2.3-5.6,5.6-8.6,9.5-8.6c3.4,0,4,2.1,2.5,8.4
			c-2.2,9.8-0.7,12.3,5.4,9.3c2-0.9,5.3-3.1,7.3-4.6l3.8-3l2.6-13.3c2.8-15,3.8-17,9.6-18c5.5-1,6.7,1.7,4.7,10.2l-1.1,4.8l4-4.1
			c9.5-9.7,21.1-14.5,25.1-10.5c2.2,2.2,1.9,4.9-1.2,14.4c-1.5,4.6-3.5,11.7-4.4,15.8c-1.4,6.2-1.5,7.6-0.7,8.6
			c2.5,2.9,10-0.1,16.7-6.6l3.9-3.8l0.5-8.6c0.5-9.9,1.4-13.4,4-16.6c2.5-2.9,6.9-5.1,9.3-4.5c2.4,0.6,2.4,2.9,0.2,9.7
			c-3,9.3-2.7,30.8,0.4,30.8c1.2,0,7.5-6.6,11.6-12.2l3-4.1l-2.4-2.5c-4.2-4.4-5.2-7.2-5.2-14.4c0-5.2,0.4-7.2,1.7-9.7
			c2.2-4,5.6-6.9,9.6-8.1c4.2-1.3,9.5,0.8,11.6,4.7c2.2,3.9,1.6,12.7-1.2,18.7l-2,4.4h2.7c3.7,0,5.2-0.9,11.8-7.2
			c3.5-3.3,7.5-6.2,10.5-7.6c11.8-5.5,25.7-2.7,28,5.8c1.9,6.8-2.3,11.6-9.7,11c-5.3-0.4-6.3-1.8-3.2-4.4c5.5-4.6,0-10.6-7.9-8.4
			c-4.3,1.2-9.2,6-11.7,11.6c-5.1,11.3-2.4,24.5,4.9,24.5c2.9,0,8.1-5.8,10.1-11.4c2.4-6.5,7.4-10.6,11.2-9.1
			c2.1,0.8,2.2,2.8,0.9,9.4c-1.5,7.2-1.7,13.9-0.5,17c0.5,1.2,1.8,3.3,3.2,4.8c2.5,2.8,2.5,3.8,0.5,5.1c-1,0.7-2.3,0.4-5.5-1.4
			c-4.5-2.3-8.3-6.5-9.7-10.4l-0.8-2.3l-3.1,2.3c-1.8,1.2-4.6,2.6-6.2,3.1c-6.4,1.7-14.3-2.7-18-10.1c-1.5-2.9-1.9-11.3-0.8-14.5
			c0.6-1.8,0.6-1.8-1.9-0.5c-1.3,0.7-4.1,1.5-6.2,1.7c-3.6,0.4-4.1,0.8-7.6,5.2c-5,6.2-13.9,14.6-17.5,16.4
			c-7.7,3.8-10.2,2.8-12.3-5.2l-1.4-5.3l-3.3,2.9c-4.2,3.7-12.7,8.2-17.6,9.3c-4.6,1-9.6-0.5-11.6-3.6c-3-4.6-2-14.4,2.8-27.6
			c3.5-9.8,1-9.9-7.9-0.6c-6.6,7-9.5,12-11.3,19.8c-1.9,8.1-4.2,11-9.5,12.3c-3.2,0.7-4.6-1.2-4-5.5l0.5-3.4l-2.9,2
			c-4.2,2.8-9.4,5.5-13,6.5c-3.6,1-8.4-0.1-9.6-2.1c-2.1-3.5-2.1-3.5-5.3-1c-7,5.7-17,4.1-22.1-3.5L184,278l-5.1,4.7
			c-14.7,13.4-33,19.4-46.6,15.3c-17.3-5.2-26.8-20-26.7-41.4c0.1-21.4,9.6-44,25.5-60.7c9-9.4,17.5-15,26.1-17
			C163.6,177.3,167.4,177.4,173.3,179.2L173.3,179.2z"/>
		<path class="st1" d="M329.6,234c-1.7,1.7-1.1,8.5,1.1,12.8c1.1,2.2,2.2,4,2.6,4c0.3,0,1-1.8,1.5-3.9
			C336.7,238.9,333.3,230.3,329.6,234z"/>
	</g>
</g>
</svg>
