<?xml version="1.0" encoding="utf-8"?>
<!-- Generator: Adobe Illustrator 28.0.0, SVG Export Plug-In . SVG Version: 6.00 Build 0)  -->
<svg version="1.1" id="Слой_1" xmlns="http://www.w3.org/2000/svg" xmlns:xlink="http://www.w3.org/1999/xlink" x="0px" y="0px"
	 viewBox="0 0 500 500" style="enable-background:new 0 0 500 500;" xml:space="preserve">
<style type="text/css">
	.st0{fill:#9E73B0;}
	.st1{fill:#7E73B3;}
	.st2{fill:url(#SVGID_1_);}
	.st3{fill:url(#SVGID_00000078011196432941584250000006431756602510401971_);}
	.st4{fill:url(#SVGID_00000101797198181593401930000007518158534128410015_);}
	.st5{fill:url(#SVGID_00000183936900399235474530000016211131801770522256_);}
	.st6{fill:#020203;}
	.st7{fill:#FFFFFF;}
</style>
<path class="st0" d="M380,500H120C53.7,500,0,446.3,0,380V120C0,53.7,53.7,0,120,0h260c66.3,0,120,53.7,120,120v260
	C500,446.3,446.3,500,380,500z"/>
<g>
	<path class="st1" d="M417.7,117.1l24.7,157.5l-93.2,54.7l-18-89.6L417.7,117.1L417.7,117.1z"/>
	
		<linearGradient id="SVGID_1_" gradientUnits="userSpaceOnUse" x1="16.9559" y1="-4887.7554" x2="18.4905" y2="-4891.5786" gradientTransform="matrix(19.5312 0 0 19.5312 -47.6378 95618.5078)">
		<stop  offset="0" style="stop-color:#7E73B3"/>
		<stop  offset="0.95" style="stop-color:#59B786"/>
	</linearGradient>
	<path class="st2" d="M417.7,117.1L280.1,57.6l-115.4,96.2l166.5,86L417.7,117.1z"/>
	
		<linearGradient id="SVGID_00000043425792462486813930000011600414031091804824_" gradientUnits="userSpaceOnUse" x1="10.1919" y1="-4882.5195" x2="12.1851" y2="-4873.8389" gradientTransform="matrix(19.5312 0 0 19.5312 -47.6378 95618.5078)">
		<stop  offset="0" style="stop-color:#7E73B3"/>
		<stop  offset="0.21" style="stop-color:#6A9DCF"/>
		<stop  offset="0.42" style="stop-color:#4AB8A9"/>
		<stop  offset="0.59" style="stop-color:#55B78F"/>
		<stop  offset="0.69" style="stop-color:#59B786"/>
	</linearGradient>
	<path style="fill:url(#SVGID_00000043425792462486813930000011600414031091804824_);" d="M317.3,442.4l-160.5-217l-48.1,32.5
		L61.2,400.9L317.3,442.4z"/>
	
		<linearGradient id="SVGID_00000043447964585691169950000001974245128645571204_" gradientUnits="userSpaceOnUse" x1="6.76" y1="-4883.1323" x2="24.0232" y2="-4873.6006" gradientTransform="matrix(19.5312 0 0 19.5312 -47.6378 95618.5078)">
		<stop  offset="8.000000e-02" style="stop-color:#59B786"/>
		<stop  offset="0.72" style="stop-color:#7E73B3"/>
	</linearGradient>
	<path style="fill:url(#SVGID_00000043447964585691169950000001974245128645571204_);" d="M348,333l-113-74L57.6,235l259.7,207.4
		L348,333z"/>
	
		<linearGradient id="SVGID_00000065787471925046417670000018443521606575702207_" gradientUnits="userSpaceOnUse" x1="5.3885" y1="-4885.1763" x2="22.7378" y2="-4885.1763" gradientTransform="matrix(19.5312 0 0 19.5312 -47.6378 95618.5078)">
		<stop  offset="8.000000e-02" style="stop-color:#59B786"/>
		<stop  offset="0.27" style="stop-color:#5BB0B4"/>
		<stop  offset="0.56" style="stop-color:#9270AF"/>
		<stop  offset="1" style="stop-color:#C46DA9"/>
	</linearGradient>
	<path style="fill:url(#SVGID_00000065787471925046417670000018443521606575702207_);" d="M57.6,60v175l333.7,114.8l26.5-232.7
		L57.6,60z"/>
	<g>
		<path class="st6" d="M129.8,129.8h240.5v240.5H129.8V129.8z"/>
		<g>
			<path class="st7" d="M154.1,161h38.7c31.3,0,52.9,21.5,52.9,49.5v0.4c0,28-21.6,49.8-52.9,49.8h-38.7V161z M176,180.9V241h16.8
				c18,0,30.1-12,30.1-29.7v-0.3c0-17.6-12-30.1-30.1-30.1H176z M249.8,211.1v-0.2c-0.3-28.2,22.4-51.3,50.6-51.6c0.5,0,1.1,0,1.6,0
				c18,0,28.7,4.8,39.1,13.6l-13.8,16.7c-7-6.7-16.4-10.3-26-10.1c-15.9,0-28.6,14.1-28.6,31v0.4c0,18.2,12.5,31.6,30.1,31.6
				c7.3,0.2,14.5-1.9,20.6-6v-14.3h-21.9v-18.9h43.3v43.2c-11.8,10.2-26.9,15.9-42.5,15.8C271,262.3,249.8,240.6,249.8,211.1
				L249.8,211.1z M151.9,325.1h90.2v15h-90.2V325.1z"/>
		</g>
	</g>
</g>
</svg>
