<?xml version="1.0" encoding="utf-8"?>
<!-- Generator: Adobe Illustrator 28.0.0, SVG Export Plug-In . SVG Version: 6.00 Build 0)  -->
<svg version="1.1" id="Слой_1" xmlns="http://www.w3.org/2000/svg" xmlns:xlink="http://www.w3.org/1999/xlink" x="0px" y="0px"
	 viewBox="0 0 500 500" style="enable-background:new 0 0 500 500;" xml:space="preserve">
<style type="text/css">
	.st0{fill:#897464;}
	.st1{fill:#392B24;}
	.st2{fill:#E1D8CC;}
	.st3{fill:#FDFDFD;}
	.st4{fill:#382A24;}
	.st5{fill:#FCFCFC;}
</style>
<path class="st0" d="M380,500H120C53.7,500,0,446.3,0,380V120C0,53.7,53.7,0,120,0h260c66.3,0,120,53.7,120,120v260
	C500,446.3,446.3,500,380,500z"/>
<g>
	<path class="st1" d="M237,59.6H263C336.9,67.2,390.7,104,424.4,170c10,22,16,45,18,69V265C434.8,338.9,398,392.7,332,426.4
		c-22,10-45,16-69,18H237C163.1,436.8,109.3,400,75.6,334c-10-22-16-45-18-69V239C65.2,165.1,102,111.3,168,77.6
		C190,67.6,213,61.6,237,59.6z"/>
	<path class="st2" d="M397.9,250.5c-0.8-20.5-6.2-39.7-16.1-57.5c2-5.9,2.6-12.2,1.9-18.4c-1.6-3.9-4.5-6.1-8.8-6.5
		c-6.6-0.4-13.3-0.5-19.9-0.4c1.4-0.6,2.9-1,4.6-1.2c-8.7-13.1-19.6-24.7-32.2-34.1c-16.1-13.3-34.8-20-56-19.9
		c-16.7,0.3-32.3,4.8-46.8,13.4c-30.5,17.5-55.8,40.7-75.9,69.8c-6.2,0.7-12.5,1.1-18.8,1.1c-32.6-5.1-42,7.4-28.4,37.6
		c5.5,11,10.6,22.3,15.3,33.7c-0.7,9.2-1.2,18.4-1.5,27.6c-9.9,16-19.3,32.4-28,49.1c-0.5,1-1,1-1.5,0
		c-25-46.9-30.5-95.9-16.5-147.2c21.1-63,63.1-105,126.1-126.1c68.4-18,129.2-3.9,182.4,42.2c48.8,47.7,67.8,105.3,57.1,172.9
		c-8.8,43.7-29.8,80.1-63.2,109.2c-1.7,1.5-3.5,2.5-5.4,3.1c-4.8-14.3-3.9-28.2,2.7-41.8c9.7-15.9,17.4-32.9,23-50.6
		C397.7,288,399.6,269.4,397.9,250.5z"/>
	<path class="st3" d="M327.4,132.4c12.6,9.4,23.5,21,32.2,34.1c-1.6,0.1-3.1,0.5-4.6,1.2c-13.1,0.9-26,3.7-38.3,8.4
		c-12,0.6-24,1-36,1.1c-3.1,1.2-6.1,1.4-9.2,0.4c-8.7-0.4-15.8-3.8-21.5-10.4c-8.5-5.2-17.4-6.2-26.8-3.1
		c-6.6,4.5-9.1,10.8-7.3,18.8c4.1,7.2,5.2,14.9,3.5,23c-0.7,1.2-1.4,2.5-1.9,3.8c-21.3,19.5-40.3,41.4-56.7,65.2
		c-4.9,8.5-8.7,17.5-11.5,26.8c-1.5,13.3,4,22.4,16.5,27.2c6.9,2.7,14.1,4.5,21.5,5.4c-6.1,4.7-13,6.2-20.7,4.6
		c-9.7-1.7-19.1-4.7-28-8.8c-9.2,16.5-17.7,33.4-25.7,50.6c-5.1-5.8-10.1-11.6-14.9-17.6c-0.5-1-0.5-2.1,0-3.1
		c6.5-15.4,13.7-30.4,21.5-45.2c4,7.1,9.7,11.8,17.3,14.2c-6-5.8-9.7-12.8-11.1-21.1c-1.4-13.2-0.1-26.5,3.8-39.1
		c15.4-49.3,43.1-90.1,83.2-122.3c17.3-12.3,36.4-20.3,57.5-23.8C289.9,121.5,309,124.7,327.4,132.4L327.4,132.4z"/>
	<path class="st1" d="M271.5,177.6c-10.7,3.8-21.2,8.3-31.4,13.4c-7,5.2-13.8,10.7-20.3,16.5c-0.3-0.4-0.5-1-0.4-1.5
		c1.8-8.1,0.6-15.8-3.5-23c-1.8-8,0.7-14.2,7.3-18.8c9.4-3.1,18.3-2.1,26.8,3.1C255.7,173.8,262.8,177.3,271.5,177.6z"/>
	<path class="st4" d="M355,167.7c6.6-0.1,13.3,0,19.9,0.4c4.3,0.4,7.2,2.6,8.8,6.5c0.7,6.2,0.1,12.5-1.9,18.4
		c-4.7,13.1-11.9,24.7-21.5,34.9c-6.7,4.5-13.9,5.3-21.5,2.3c-16.8-5-30.2-14.6-40.2-28.8c-3.2-8-1-14.3,6.5-18.8
		c3.8-2.2,7.7-4.3,11.5-6.5C329,171.4,341.9,168.6,355,167.7z"/>
	<path class="st0" d="M316.7,176.1c-3.8,2.2-7.7,4.3-11.5,6.5c-7.5,4.5-9.7,10.7-6.5,18.8c10,14.2,23.4,23.7,40.2,28.8
		c7.6,3,14.8,2.2,21.5-2.3c9.6-10.2,16.8-21.8,21.5-34.9c9.9,17.8,15.3,37,16.1,57.5c-3.7,12-8.7,23.6-14.9,34.5
		c-2.9,4.2-6.1,8.2-9.6,11.9c-3.7,2.5-7.3,5.2-10.7,8.1l-0.8-1.2c3.5-12.9,4.4-26.3,2.7-39.5c-0.7-3.5-2-6.9-3.8-10
		c-1.2,17-5.6,33.7-13,49.1c-9.9,18.5-25.1,25-45.6,19.5c-30.7-8.8-57.7-24-80.9-45.6c1.5,9.2,4.1,18.2,7.7,26.8
		c4.7,14.3,6,28.8,3.8,43.7c-0.7,3.2-1.7,6.2-3.1,9.2c-10.4,16.9-19.3,34.6-26.8,52.9c-2.5,6.8-4.6,13.7-6.1,20.7
		c-0.4,0.8-1.1,1.3-1.9,1.5c-31.9-10-59.3-27.1-82-51.4c7.9-17.2,16.5-34,25.7-50.6c8.9,4.2,18.3,7.1,28,8.8
		c7.7,1.6,14.6,0.1,20.7-4.6c-7.4-0.8-14.6-2.6-21.5-5.4c-12.5-4.9-18-13.9-16.5-27.2c2.8-9.4,6.6-18.4,11.5-26.8
		c16.4-23.8,35.4-45.7,56.7-65.2c0.5-1.3,1.2-2.6,1.9-3.8c-0.1,0.5,0,1.1,0.4,1.5c6.5-5.8,13.3-11.3,20.3-16.5
		c10.2-5.1,20.7-9.6,31.4-13.4c3.1,1,6.1,0.9,9.2-0.4C292.7,177.1,304.7,176.7,316.7,176.1z"/>
	<path class="st5" d="M368.8,311.8c-4.2,17.9-10.3,35.4-18,52.1c-1.6,3-4,5.1-7.3,6.1l-0.8-1.2c3.3-9.2,4.9-19,4.6-28.7
		c-2.8,11.5-7,22.6-12.6,33c-5.9,2.4-11.9,2.8-18,1.1c-1.9-2.4-3.3-5.1-4.2-8c-2-9.6-3.1-19.3-3.4-29.1
		C333.3,338.7,353.3,330.3,368.8,311.8L368.8,311.8z"/>
</g>
</svg>
