<?xml version="1.0" encoding="utf-8"?>
<!-- Generator: Adobe Illustrator 28.0.0, SVG Export Plug-In . SVG Version: 6.00 Build 0)  -->
<svg version="1.1" id="Слой_1" xmlns="http://www.w3.org/2000/svg" xmlns:xlink="http://www.w3.org/1999/xlink" x="0px" y="0px"
	 viewBox="0 0 500 500" style="enable-background:new 0 0 500 500;" xml:space="preserve">
<style type="text/css">
	.st0{fill:#3E7C5A;}
	.st1{fill:#1A5D38;}
	.st2{fill:#1FA367;}
	.st3{fill:#0E7D42;}
	.st4{opacity:0.1;fill:#020203;enable-background:new    ;}
	.st5{opacity:0.2;fill:#020203;enable-background:new    ;}
	.st6{fill:url(#SVGID_1_);}
	.st7{fill:#FFFFFF;}
	.st8{fill:#4EB47F;}
</style>
<path class="st0" d="M380,500H120C53.7,500,0,446.3,0,380V120C0,53.7,53.7,0,120,0h260c66.3,0,120,53.7,120,120v260
	C500,446.3,446.3,500,380,500z"/>
<g>
	<path class="st1" d="M299.8,242.2l-153.2-29.1v215.4c0,9.8,7.4,17.8,16.5,17.8l0,0h264.3c9.1,0,16.5-8,16.5-17.8l0,0v-79.4
		L299.8,242.2z"/>
	<path class="st2" d="M299.8,57.6H163.1c-9.1,0-16.5,8-16.5,17.8l0,0v79.4l153.2,97.2l81.1,29.1l63.1-29.1v-97.2L299.8,57.6z"/>
	<path class="st3" d="M146.6,154.8h153.2v97.2H146.6V154.8z"/>
	<path class="st4" d="M256.2,135.3H146.6v242.9h109.6c9.1,0,16.5-8,16.5-17.8V153.1C272.7,143.3,265.3,135.4,256.2,135.3z"/>
	<path class="st5" d="M247.2,145.1H146.6V388h100.6c9.1,0,16.5-8,16.5-17.8V162.9C263.7,153,256.3,145.1,247.2,145.1z"/>
	<path class="st5" d="M247.2,145.1H146.6v223.5h100.6c9.1,0,16.5-8,16.5-17.8V162.9C263.7,153,256.3,145.1,247.2,145.1z"/>
	<path class="st5" d="M238.2,145.1h-91.6v223.5h91.6c9.1,0,16.5-8,16.5-17.8V162.9C254.7,153,247.3,145.1,238.2,145.1z"/>
	
		<linearGradient id="SVGID_1_" gradientUnits="userSpaceOnUse" x1="135.2897" y1="-1826.8462" x2="271.2279" y2="-1591.407" gradientTransform="matrix(1 0 0 1 -47.6378 1961.0552)">
		<stop  offset="0" style="stop-color:#1B8950"/>
		<stop  offset="0.5" style="stop-color:#147F44"/>
		<stop  offset="1" style="stop-color:#116732"/>
	</linearGradient>
	<path class="st6" d="M73,145.1h165.2c9.1,0,16.5,8,16.5,17.8V341c0,9.8-7.4,17.8-16.5,17.8H73c-9.1,0-16.5-8-16.5-17.8V162.9
		C56.5,153,63.9,145.1,73,145.1z"/>
	<path class="st7" d="M107.7,309.8l34.7-58.1L110.6,194h25.6l17.4,36.9c1.6,3.5,2.7,6.1,3.3,7.8h0.2c1.1-2.8,2.3-5.5,3.6-8.2
		l18.6-36.6h23.5l-32.6,57.4l33.5,58.4h-25l-20.1-40.5c-0.9-1.7-1.7-3.5-2.4-5.4h-0.3c-0.6,1.8-1.4,3.6-2.3,5.2l-20.7,40.7H107.7
		L107.7,309.8z"/>
	<path class="st8" d="M427.4,57.6H299.8v97.2h144.2V75.4C443.9,65.6,436.6,57.6,427.4,57.6L427.4,57.6z"/>
	<path class="st3" d="M299.8,251.9h144.2v97.2H299.8V251.9z"/>
</g>
</svg>
