<?xml version="1.0" encoding="utf-8"?>
<!-- Generator: Adobe Illustrator 28.0.0, SVG Export Plug-In . SVG Version: 6.00 Build 0)  -->
<svg version="1.1" id="Слой_1" xmlns="http://www.w3.org/2000/svg" xmlns:xlink="http://www.w3.org/1999/xlink" x="0px" y="0px"
	 viewBox="0 0 500 500" style="enable-background:new 0 0 500 500;" xml:space="preserve">
<style type="text/css">
	.st0{fill:#335C71;}
	.st1{fill:#99BDC1;}
	.st2{clip-path:url(#SVGID_00000078745818155740921860000011919332041166382778_);}
	.st3{fill:#4CB37D;}
	.st4{fill:#765FA6;}
	.st5{fill:#E95025;}
	.st6{fill:#EE7265;}
	.st7{fill:#46B7EA;}
</style>
<path class="st0" d="M380,500H120C53.7,500,0,446.3,0,380V120C0,53.7,53.7,0,120,0h260c66.3,0,120,53.7,120,120v260
	C500,446.3,446.3,500,380,500z"/>
<g>
	<path class="st1" d="M117.2,0h265.6C447.5,0,500,52.5,500,117.2v265.6c0,64.7-52.5,117.2-117.2,117.2H117.2
		C52.5,500,0,447.5,0,382.8V117.2C0,52.5,52.5,0,117.2,0z"/>
	<g>
		<defs>
			<rect id="SVGID_1_" x="119.1" y="57.6" width="260.5" height="387.7"/>
		</defs>
		<clipPath id="SVGID_00000146500182946107018150000017706902087253415082_">
			<use xlink:href="#SVGID_1_"  style="overflow:visible;"/>
		</clipPath>
		<g style="clip-path:url(#SVGID_00000146500182946107018150000017706902087253415082_);">
			<path class="st3" d="M184.3,445.3c35.9,0,65.1-28.9,65.1-64.6v-64.6h-65.1c-35.9,0-65.1,29-65.1,64.6S148.3,445.3,184.3,445.3z"
				/>
			<path class="st4" d="M119.2,251.5c0-35.7,29.2-64.6,65.1-64.6h65.1v129.2h-65.1C148.3,316.1,119.2,287.1,119.2,251.5z"/>
			<path class="st5" d="M119.2,122.2c0-35.7,29.2-64.6,65.1-64.6h65.1v129.2h-65.1C148.3,186.8,119.2,157.9,119.2,122.2z"/>
			<path class="st6" d="M249.4,57.6h65.1c35.9,0,65.1,28.9,65.1,64.6s-29.2,64.6-65.1,64.6h-65.1V57.6z"/>
			<path class="st7" d="M379.6,251.5c0,35.7-29.2,64.6-65.1,64.6s-65.1-28.9-65.1-64.6s29.2-64.6,65.1-64.6S379.6,215.8,379.6,251.5
				z"/>
		</g>
	</g>
</g>
</svg>
