<?xml version="1.0" encoding="utf-8"?>
<!-- Generator: Adobe Illustrator 28.0.0, SVG Export Plug-In . SVG Version: 6.00 Build 0)  -->
<svg version="1.1" id="Слой_1" xmlns="http://www.w3.org/2000/svg" xmlns:xlink="http://www.w3.org/1999/xlink" x="0px" y="0px"
	 viewBox="0 0 500 500" style="enable-background:new 0 0 500 500;" xml:space="preserve">
<style type="text/css">
	.st0{fill:#335C71;}
	.st1{fill:#E67E39;}
	.st2{fill:#E84436;}
	.st3{fill:#517CBE;}
	.st4{fill:#32A853;}
	.st5{fill:#FBBC0C;}
</style>
<path class="st0" d="M380,500H120C53.7,500,0,446.3,0,380V120C0,53.7,53.7,0,120,0h260c66.3,0,120,53.7,120,120v260
	C500,446.3,446.3,500,380,500z"/>
<g>
	<path class="st1" d="M117.2,0h265.6C447.5,0,500,52.5,500,117.2v265.6c0,64.7-52.5,117.2-117.2,117.2H117.2
		C52.5,500,0,447.5,0,382.8V117.2C0,52.5,52.5,0,117.2,0z"/>
	<path class="st2" d="M314.5,180.4l34-34l2.3-14.3c-61.9-56.3-160.2-49.9-216,13.3c-15.5,17.6-27,39.4-33.1,62l12.2-1.7l67.9-11.2
		l5.2-5.4c30.2-33.2,81.3-37.6,116.2-9.4L314.5,180.4z"/>
	<path class="st3" d="M396.8,206.5c-7.8-28.7-23.8-54.6-46.1-74.3L303,179.9c20.1,16.4,31.6,41.2,31.1,67.2v8.5
		c23.4,0,42.4,19,42.4,42.4c0,23.4-19,41.9-42.4,41.9h-84.9l-8.3,9.1v50.9l8.3,8h84.9c60.9,0.5,110.7-48.1,111.2-109
		C445.6,261.9,427.4,227.2,396.8,206.5z"/>
	<path class="st4" d="M164.4,407.8h84.8v-67.9h-84.8c-6,0-11.9-1.3-17.4-3.8l-12,3.7l-34.2,34l-3,11.6
		C116.9,399.7,140.3,407.9,164.4,407.8z"/>
	<path class="st5" d="M164.4,187.5c-60.9,0.4-110,50.1-109.7,111c0.2,34,16.1,66.1,43.1,86.8L147,336c-21.3-9.6-30.8-34.8-21.2-56.1
		c9.6-21.3,34.8-30.8,56.1-21.2c9.4,4.2,16.9,11.8,21.2,21.2l49.2-49.2C231.3,203.4,198.8,187.4,164.4,187.5z"/>
</g>
</svg>
