<?xml version="1.0" encoding="utf-8"?>
<!-- Generator: Adobe Illustrator 28.0.0, SVG Export Plug-In . SVG Version: 6.00 Build 0)  -->
<svg version="1.1" id="Слой_1" xmlns="http://www.w3.org/2000/svg" xmlns:xlink="http://www.w3.org/1999/xlink" x="0px" y="0px"
	 viewBox="0 0 500 500" style="enable-background:new 0 0 500 500;" xml:space="preserve">
<style type="text/css">
	.st0{fill:#AFACAA;}
	.st1{fill:#E83F31;}
	.st2{clip-path:url(#SVGID_00000070078998812429026710000010456455993236414118_);}
	.st3{fill:#FFFFFF;}
</style>
<path class="st0" d="M380,500H120C53.7,500,0,446.3,0,380V120C0,53.7,53.7,0,120,0h260c66.3,0,120,53.7,120,120v260
	C500,446.3,446.3,500,380,500z"/>
<g>
	<path class="st1" d="M117.2,0h265.6C447.5,0,500,52.5,500,117.2v265.6c0,64.7-52.5,117.2-117.2,117.2H117.2
		C52.5,500,0,447.5,0,382.8V117.2C0,52.5,52.5,0,117.2,0z"/>
	<g>
		<defs>
			<rect id="SVGID_1_" x="57.6" y="57.6" width="384.8" height="384.8"/>
		</defs>
		<clipPath id="SVGID_00000121964718796583825240000008075514760339700387_">
			<use xlink:href="#SVGID_1_"  style="overflow:visible;"/>
		</clipPath>
		<g style="clip-path:url(#SVGID_00000121964718796583825240000008075514760339700387_);">
			<path class="st3" d="M435.1,232.9l-168-168c-2.3-2.3-5-4.1-8-5.4c-3-1.2-6.2-1.9-9.5-1.9c-3.3,0-6.5,0.6-9.5,1.9
				c-3,1.2-5.7,3.1-8,5.4l-34.9,34.9l44.3,44.3c10.3-3.6,22.1-1.1,30.3,7.1c3.9,3.9,6.6,8.8,7.9,14.2s0.9,11-0.9,16.2l42.7,42.7
				c10.3-3.6,22.2-1.3,30.5,7c2.7,2.7,4.9,6,6.4,9.6c1.5,3.6,2.2,7.4,2.2,11.3c0,3.9-0.8,7.7-2.2,11.3c-1.5,3.6-3.7,6.8-6.4,9.6
				c-2.7,2.7-6,4.9-9.6,6.4c-3.6,1.5-7.4,2.2-11.3,2.2c-3.9,0-7.7-0.8-11.3-2.2c-3.6-1.5-6.8-3.7-9.6-6.4
				c-8.7-8.7-10.8-21.4-6.4-32.1L263.9,201v104.7c2.9,1.4,5.5,3.3,7.8,5.6c2.7,2.7,4.9,6,6.4,9.6c1.5,3.6,2.2,7.4,2.2,11.3
				s-0.8,7.7-2.2,11.3c-1.5,3.6-3.7,6.8-6.4,9.6c-2.7,2.7-6,4.9-9.6,6.4c-3.6,1.5-7.4,2.2-11.3,2.2c-3.9,0-7.7-0.8-11.3-2.2
				c-3.6-1.5-6.8-3.7-9.6-6.4c-2.7-2.7-4.9-6-6.4-9.6c-1.5-3.6-2.2-7.4-2.2-11.3s0.8-7.7,2.2-11.3c1.5-3.6,3.7-6.8,6.4-9.6
				c2.8-2.8,6-5,9.7-6.4V199.2c-3.5-1.4-6.8-3.6-9.7-6.4c-4.1-4.1-7-9.4-8.1-15.2c-1.1-5.7-0.5-11.7,1.7-17.1l-43.6-43.6L64.9,232
				c-2.3,2.3-4.1,5-5.4,8c-1.2,3-1.9,6.2-1.9,9.5c0,3.3,0.6,6.5,1.9,9.5c1.2,3,3.1,5.7,5.4,8l168,168c2.3,2.3,5,4.1,8,5.4
				c3,1.2,6.2,1.9,9.5,1.9c3.3,0,6.5-0.6,9.5-1.9c3-1.2,5.7-3.1,8-5.4l167.2-167c2.3-2.3,4.1-5,5.4-8c1.2-3,1.9-6.2,1.9-9.5
				c0-3.3-0.6-6.5-1.9-9.5c-1.2-3-3.1-5.7-5.4-8"/>
		</g>
	</g>
</g>
</svg>
