<?xml version="1.0" encoding="utf-8"?>
<!-- Generator: Adobe Illustrator 28.0.0, SVG Export Plug-In . SVG Version: 6.00 Build 0)  -->
<svg version="1.1" id="Слой_1" xmlns="http://www.w3.org/2000/svg" xmlns:xlink="http://www.w3.org/1999/xlink" x="0px" y="0px"
	 viewBox="0 0 500 500" style="enable-background:new 0 0 500 500;" xml:space="preserve">
<style type="text/css">
	.st0{fill:#4C71B7;}
	.st1{fill:#020203;}
</style>
<path class="st0" d="M380,500H120C53.7,500,0,446.3,0,380V120C0,53.7,53.7,0,120,0h260c66.3,0,120,53.7,120,120v260
	C500,446.3,446.3,500,380,500z"/>
<g>
	<path class="st1" d="M56.5,198.7h32.7v102.7H56.5V198.7z M243.2,198.7h-56v32.7h23.3v70h32.7v-70h23.3v-32.7H243.2z M331.9,198.7
		h-56v32.7h23.3v70h32.7v-70h23.3v-32.7H331.9z M420.6,198.7h-56v32.7h23.3v70h32.7v-70h23.3v-32.7H420.6z M177.9,231.3v-32.7h-74.7
		v102.7h32.7v-28h28v-32.7h-28v-9.3L177.9,231.3z"/>
</g>
</svg>
