<?xml version="1.0" encoding="utf-8"?>
<!-- Generator: Adobe Illustrator 28.0.0, SVG Export Plug-In . SVG Version: 6.00 Build 0)  -->
<svg version="1.1" id="Слой_1" xmlns="http://www.w3.org/2000/svg" xmlns:xlink="http://www.w3.org/1999/xlink" x="0px" y="0px"
	 viewBox="0 0 500 500" style="enable-background:new 0 0 500 500;" xml:space="preserve">
<style type="text/css">
	.st0{fill:#335C71;}
	.st1{fill:#2D0E0F;}
	.st2{fill:#F4991C;}
</style>
<path class="st0" d="M380,500H120C53.7,500,0,446.3,0,380V120C0,53.7,53.7,0,120,0h260c66.3,0,120,53.7,120,120v260
	C500,446.3,446.3,500,380,500z"/>
<g>
	<path class="st1" d="M117.2,0h265.6C447.5,0,500,52.5,500,117.2v265.6c0,64.7-52.5,117.2-117.2,117.2H117.2
		C52.5,500,0,447.5,0,382.8V117.2C0,52.5,52.5,0,117.2,0z"/>
	<path class="st2" d="M241.7,319h-103l-21,65c-0.6,2.5-2.8,4.2-5.3,3.9h-52c-3,0-3.9-1.7-3-5l89.1-256.6c0.8-2.8,1.7-5.8,2.8-9.1
		c1.1-5.8,1.7-11.9,1.7-18c-0.3-1.4,0.8-2.8,2.2-3h0.8h70.9c2.2,0,3.3,0.8,3.6,2.2l101,285.1c0.8,3,0,4.4-2.8,4.4h-57.9
		c-1.9,0.3-3.9-1.1-4.4-3L241.7,319L241.7,319z M154.8,262.8h70.3c-1.7-5.8-3.9-12.7-6.4-19.9c-2.5-7.5-5-15.5-7.5-23.8
		c-2.8-8.6-5.3-16.9-8-25.5c-2.8-8.6-5.3-16.6-7.5-24.6c-2.2-7.8-4.2-14.9-6.1-21.6h-0.6c-2.5,11.9-5.5,23.8-9.4,35.7
		c-4.2,13.3-8.3,27.1-12.7,41C163.1,238.2,158.9,251.2,154.8,262.8L154.8,262.8z"/>
	<path class="st2" d="M391.2,144.6c-9.1,0.3-18-3.3-24.6-9.7c-6.4-6.9-9.7-16.1-9.4-25.5c-0.3-9.4,3.3-18.3,10-24.6
		c6.6-6.4,15.5-9.7,24.6-9.7c10.8,0,19.1,3.3,25.2,9.7c6.1,6.6,9.4,15.5,9.1,24.6c0.3,9.4-3,18.5-9.7,25.5
		C410,141.6,400.6,145.2,391.2,144.6z M360.2,384.9V171.7c0-2.8,1.1-3.9,3.6-3.9h54.8c2.5,0,3.6,1.4,3.6,3.9v213.1
		c0,3-1.1,4.4-3.6,4.4h-54.3C361.6,389.3,360.2,387.6,360.2,384.9L360.2,384.9z"/>
</g>
</svg>
