<?xml version="1.0" encoding="utf-8"?>
<!-- Generator: Adobe Illustrator 28.0.0, SVG Export Plug-In . SVG Version: 6.00 Build 0)  -->
<svg version="1.1" xmlns="http://www.w3.org/2000/svg" xmlns:xlink="http://www.w3.org/1999/xlink" x="0px" y="0px"
	 viewBox="0 0 500 500" style="enable-background:new 0 0 500 500;" xml:space="preserve">
<style type="text/css">
	.st0{fill:#848484;}
	.st1{fill:#4F4F4F;}
	.st2{fill:#777678;}
	.st3{fill:#EE7729;}
	.st4{fill:#9E9E9E;}
	.st5{fill:#626363;}
</style>
<g id="Слой_1">
	<path class="st0" d="M380,500H120C53.7,500,0,446.3,0,380V120C0,53.7,53.7,0,120,0h260c66.3,0,120,53.7,120,120v260
		C500,446.3,446.3,500,380,500z"/>
</g>
<g id="Слой_2">
	<g id="Group_00000170257812317513613410000008598682459722044568_">
		<g id="g_00000065034325157396402660000004769457370251667608_">
			<g id="path_00000061460155316193159450000002585464715811272595_">
				<g id="path9_fill_00000157270942686903262840000005223925058479496081_">
					<g transform="translate(1640.54 2474.36)">
						<path id="path0_fill_00000106847225307340568820000016224583630511744676_" class="st1" d="M99.2,260.6c0,12-1,15.9-3.4,18.8
							c-2.7,2.5-6.3,3.8-10,3.8l1,6.9c5.7,0.1,11.3-1.9,15.6-5.7c2.3-2.8,4.1-6.1,5.1-9.7c1-3.5,1.3-7.2,0.9-10.9v-45.4h-9.2v41.9
							V260.6z"/>
					</g>
				</g>
			</g>
			<g id="path_00000025430070887334773410000004292420350300189097_">
				<g id="path10_fill_00000134944099241274308600000010995385919000531860_">
					<g transform="translate(1645.68 2474.37)">
						<path id="path1_fill_00000111180011167726936670000008965218555012019644_" class="st1" d="M167.7,255.2c0,5.1,0,9.7,0.4,13.7
							h-8.2l-0.5-8.2c-1.7,2.9-4.1,5.3-7.1,6.9c-2.9,1.6-6.2,2.5-9.6,2.4c-7.9,0-17.4-4.3-17.4-21.9v-29.3h9.2v27.4
							c0,9.5,2.9,15.9,11.2,15.9c1.7,0,3.4-0.3,5-0.9s3-1.6,4.2-2.8c1.2-1.2,2.2-2.6,2.8-4.2c0.6-1.6,1-3.3,0.9-5v-30.7h9.2v36.4
							L167.7,255.2z"/>
					</g>
				</g>
			</g>
			<g id="path_00000015348860838690886790000003496655251256361857_">
				<g id="path11_fill_00000115503835347732920630000016050042363506628527_">
					<g transform="translate(1653.39 2474.26)">
						<path id="path2_fill_00000157996836508741147080000010037252397620407197_" class="st1" d="M185.1,235.2
							c0-6.4,0-11.6-0.4-16.3h8.2l0.4,8.6c1.8-3.1,4.5-5.6,7.6-7.3c3.2-1.7,6.7-2.5,10.3-2.4c12.2,0,21.4,10.2,21.4,25.4
							c0,17.9-11,26.9-23,26.9c-3.1,0.1-6.1-0.5-8.8-1.9c-2.7-1.4-5-3.4-6.7-6l0,0v27.4h-9v-54.1V235.2z M194.1,248.5
							c0,1.2,0.2,2.5,0.4,3.7c0.8,3,2.5,5.7,5,7.7c2.5,1.9,5.5,3,8.7,3c9.7,0,15.3-7.9,15.3-19.3c0-10-5.3-18.6-15-18.6
							c-3.8,0.3-7.4,2-10.1,4.8c-2.7,2.8-4.2,6.4-4.4,10.2V248.5z"/>
					</g>
				</g>
			</g>
			<g id="path_00000059999464149795590390000011462782151183704460_">
				<g id="path12_fill_00000013891689787183569060000010568333940103055295_">
					<g transform="translate(1660.43 2474.39)">
						<path id="path3_fill_00000116935347777739577430000015043803217387939460_" class="st1" d="M249,218.8l11,29.5
							c1.2,3.3,2.4,7.3,3.2,10.2c1-3,2-6.9,3.2-10.4l10-29.3h9.7l-13.7,35.6c-6.9,17.1-11,26-17.3,31.3c-3.2,2.9-7,4.9-11.2,5.9
							l-2.3-7.7c2.9-1,5.7-2.5,8-4.5c3.3-2.7,6-6.2,7.7-10.1c0.4-0.7,0.6-1.4,0.8-2.2c-0.1-0.8-0.3-1.6-0.6-2.4l-18.6-46.1h10
							L249,218.8z"/>
					</g>
				</g>
			</g>
			<g id="path_00000071531372496416236540000011403979610658583743_">
				<g id="path13_fill_00000167368779941732273000000000822996757335574402_">
					<g transform="translate(1667.55 2472.54)">
						<path id="path4_fill_00000097473191932362100900000017066284625664988602_" class="st1" d="M310.5,204.5v14.4h13.2v6.9h-13.2
							v27c0,6.2,1.8,9.7,6.9,9.7c1.8,0,3.6-0.2,5.3-0.6l0.4,6.9c-2.6,0.9-5.4,1.3-8.2,1.2c-1.8,0.1-3.7-0.2-5.4-0.8
							c-1.7-0.7-3.3-1.7-4.5-3c-2.8-3.7-4.1-8.4-3.6-13v-27.4h-7.8v-6.9h7.9v-12.2L310.5,204.5z"/>
					</g>
				</g>
			</g>
			<g id="path_00000085211395414968444940000000650076443146552460_">
				<g id="path14_fill_00000178900142169408632520000004887965843651264922_">
					<g transform="translate(1672.47 2474.29)">
						<path id="path5_fill_00000092453757315080821350000014722763255015186879_" class="st1" d="M340.5,245.5
							c-0.2,2.3,0.1,4.7,0.9,6.8c0.8,2.2,2.1,4.2,3.7,5.8c1.6,1.6,3.6,2.9,5.8,3.7c2.2,0.8,4.5,1.1,6.8,0.9
							c4.7,0.1,9.4-0.8,13.7-2.6l1.6,6.9c-5.3,2.2-11,3.2-16.8,3.1c-3.4,0.2-6.7-0.3-9.9-1.5c-3.1-1.2-6-3-8.3-5.4
							c-2.4-2.4-4.2-5.3-5.3-8.4c-1.1-3.2-1.6-6.5-1.3-9.9c0-15.1,9-27,23.6-27c16.4,0,20.6,14.4,20.6,23.6c0.1,1.4,0.1,2.8,0,4.2
							h-35.4L340.5,245.5z M367.4,238.6c0.3-1.8,0.1-3.7-0.4-5.5c-0.5-1.8-1.4-3.4-2.6-4.8c-1.2-1.4-2.7-2.5-4.4-3.3
							c-1.7-0.8-3.5-1.2-5.4-1.2c-3.8,0.3-7.3,1.9-9.9,4.7c-2.6,2.7-4.1,6.3-4.2,10.1H367.4z"/>
					</g>
				</g>
			</g>
			<g id="path_00000040574218271584691300000000995732069377271958_">
				<g id="path15_fill_00000168118219900965725580000010865995964292374914_">
					<g transform="translate(1679.98 2474.24)">
						<path id="path6_fill_00000170256312732213475300000007368142759276718745_" class="st1" d="M389.7,234.4c0-5.9,0-11-0.4-15.6
							h8.2v9.8h0.4c0.9-3,2.6-5.7,5.1-7.7c2.5-2,5.5-3.1,8.6-3.3c0.9-0.1,1.7-0.1,2.6,0v8.6c-1-0.1-2.1-0.1-3.2,0
							c-3.1,0.1-6.1,1.4-8.3,3.5c-2.3,2.1-3.7,5-3.9,8.1c-0.3,1.4-0.4,2.8-0.4,4.2v26.6h-9v-34.3L389.7,234.4z"/>
					</g>
				</g>
			</g>
		</g>
	</g>
	<g id="g_00000036934417461615508770000007815406273373353649_">
		<g id="path_00000167393531815506773160000005669757301163149719_">
			<g id="path16_fill_00000170276228402965953280000007739672994567427516_">
				<g transform="translate(1673.48 2453.69)">
					<path id="path7_fill_00000054984936457896231760000008779165247115104946_" class="st2" d="M385.7,81.2
						c0.3,4.6-0.8,9.2-3.1,13.2c-2.3,4-5.8,7.2-9.9,9.2c-4.2,2-8.8,2.7-13.4,2.1c-4.6-0.7-8.8-2.6-12.3-5.7c-3.4-3.1-5.9-7.1-7-11.6
						c-1.1-4.5-0.9-9.2,0.7-13.5c1.6-4.3,4.4-8.1,8.1-10.8c3.7-2.7,8.2-4.3,12.8-4.5c3-0.2,6,0.3,8.9,1.3c2.9,1,5.5,2.6,7.7,4.6
						c2.2,2,4.1,4.5,5.4,7.2C384.8,75.2,385.5,78.2,385.7,81.2L385.7,81.2z"/>
				</g>
			</g>
		</g>
		<g id="path_00000168818338818744726970000004507978855853771682_">
			<g id="path17_fill_00000023977649499962592310000008879957660342642326_">
				<g transform="translate(1643.21 2484.27)">
					<path id="path8_fill_00000160156180408679430290000016712397533786300599_" class="st3" d="M250.2,349.5
						c-61.7,0-115.8-22.1-143.9-54.8c10.9,29.4,30.5,54.8,56.2,72.7c25.7,17.9,56.3,27.5,87.7,27.5c31.3,0,61.9-9.6,87.7-27.5
						c25.7-17.9,45.3-43.3,56.2-72.7C366.1,327.4,312.1,349.5,250.2,349.5z"/>
				</g>
			</g>
		</g>
		<g id="path_00000098204558247243945340000002570366988533451965_">
			<g id="path18_fill_00000163050078757249949420000016332916684014694538_">
				<g transform="translate(1643.21 2457.88)">
					<path id="path9_fill_00000065054121010071818530000013140875795006528136_" class="st3" d="M250.2,137
						c61.7,0,115.8,22.1,143.9,54.8c-10.9-29.4-30.5-54.8-56.2-72.7c-25.7-17.9-56.3-27.5-87.7-27.5c-31.3,0-61.9,9.6-87.7,27.5
						c-25.7,17.9-45.3,43.3-56.2,72.7C134.4,159.1,188.3,137,250.2,137z"/>
				</g>
			</g>
		</g>
		<g id="path_00000060023958393964570230000013701859779552335004_">
			<g id="path19_fill_00000139983847025447463440000007470615130401363858_">
				<g transform="translate(1643.28 2496.09)">
					<path id="path10_fill_00000061452122909338623640000008413509671558425779_" class="st4" d="M165.3,413.1
						c0.4,5.8-1,11.6-3.9,16.6c-2.9,5-7.3,9-12.5,11.6c-5.2,2.5-11.1,3.4-16.8,2.6c-5.8-0.8-11.1-3.3-15.4-7.2s-7.4-9-8.8-14.6
						c-1.4-5.6-1.1-11.6,0.8-17c2-5.5,5.5-10.2,10.2-13.7c4.7-3.4,10.3-5.4,16.1-5.7c3.8-0.2,7.6,0.3,11.2,1.6
						c3.6,1.3,6.9,3.2,9.7,5.8c2.8,2.5,5.1,5.6,6.8,9.1C164.2,405.6,165.1,409.3,165.3,413.1L165.3,413.1z"/>
				</g>
			</g>
		</g>
		<g id="path_00000024703829785388514810000011134816522242211985_">
			<g id="path20_fill_00000100346731257586286580000006866230275480179632_">
				<g transform="translate(1641.87 2458.43)">
					<path id="path11_fill_00000101079620576751755760000008991588595328403645_" class="st5" d="M113.3,129.6
						c-3.3,0.1-6.6-0.8-9.4-2.6c-2.8-1.8-5-4.3-6.4-7.4c-1.4-3-1.8-6.4-1.3-9.7s2-6.3,4.3-8.8c2.3-2.4,5.2-4.1,8.4-4.9
						c3.2-0.8,6.6-0.6,9.7,0.6c3.1,1.2,5.8,3.2,7.8,5.9c2,2.7,3.1,5.9,3.2,9.2c0.1,4.5-1.5,8.9-4.6,12.1
						C122.1,127.5,117.8,129.4,113.3,129.6z"/>
				</g>
			</g>
		</g>
	</g>
</g>
</svg>
