<?xml version="1.0" encoding="utf-8"?>
<!-- Generator: Adobe Illustrator 28.0.0, SVG Export Plug-In . SVG Version: 6.00 Build 0)  -->
<svg version="1.1" id="Слой_1" xmlns="http://www.w3.org/2000/svg" xmlns:xlink="http://www.w3.org/1999/xlink" x="0px" y="0px"
	 viewBox="0 0 500 500" style="enable-background:new 0 0 500 500;" xml:space="preserve">
<style type="text/css">
	.st0{fill:#8B8B8C;}
	.st1{fill:#4F4F4F;}
	.st2{fill:#777678;}
	.st3{fill:#EE7729;}
	.st4{fill:#9E9E9E;}
	.st5{fill:#626363;}
</style>
<path class="st0" d="M380,500H120C53.7,500,0,446.3,0,380V120C0,53.7,53.7,0,120,0h260c66.3,0,120,53.7,120,120v260
	C500,446.3,446.3,500,380,500z"/>
<g>
	<g>
		<path class="st1" d="M98.2,260.8v-0.3v-42.3h9.3v45.8c0.4,3.7,0.1,7.4-0.9,11c-1,3.6-2.8,6.9-5.2,9.8c-4.4,3.8-10,5.8-15.8,5.7
			l-1-6.9c3.7,0,7.3-1.4,10.1-3.9C97.2,276.9,98.2,272.9,98.2,260.8z M167.4,255.4c0,5.2,0,9.8,0.4,13.8h-8.2L159,261
			c-1.7,2.9-4.2,5.3-7.1,7c-3,1.7-6.3,2.5-9.7,2.4c-8,0-17.6-4.4-17.6-22.1v-29.5h9.3v27.7c0,9.6,3,16.1,11.3,16.1
			c1.7,0,3.4-0.3,5-1c1.6-0.7,3-1.6,4.3-2.8c1.2-1.2,2.2-2.7,2.8-4.3c0.7-1.6,1-3.3,1-5v-31h9.3v36.7L167.4,255.4z M184.9,235.2
			c0-6.4,0-11.7-0.4-16.5h8.3l0.4,8.6c1.8-3.1,4.5-5.7,7.7-7.4c3.2-1.7,6.8-2.6,10.4-2.4c12.3,0,21.6,10.3,21.6,25.7
			c0,18.1-11.1,27.1-23.2,27.1c-3.1,0.1-6.1-0.5-8.9-1.9c-2.8-1.4-5.1-3.5-6.8-6V290h-9.1v-54.7V235.2z M194.1,248.6
			c0,1.3,0.2,2.5,0.4,3.7c0.8,3.1,2.6,5.8,5.1,7.7c2.5,1.9,5.6,3,8.8,3c9.8,0,15.5-8,15.5-19.5c0-10.1-5.4-18.8-15.2-18.8
			c-3.9,0.3-7.5,2-10.2,4.8c-2.7,2.8-4.3,6.5-4.4,10.3V248.6z M249.5,218.6l11.1,29.8c1.2,3.3,2.4,7.3,3.3,10.3c1-3,2-6.9,3.3-10.5
			l10.1-29.6h9.8l-13.8,36c-6.9,17.3-11.1,26.2-17.5,31.6c-3.2,2.9-7.1,5-11.3,6l-2.3-7.7c3-1,5.7-2.5,8.1-4.5
			c3.4-2.8,6.1-6.3,7.8-10.2c0.4-0.7,0.6-1.4,0.8-2.2c-0.1-0.8-0.3-1.7-0.6-2.4l-18.8-46.6h10.1L249.5,218.6z M311.6,204.1v14.5
			h13.3v6.9h-13.3v27.3c0,6.2,1.8,9.8,6.9,9.8c1.8,0,3.6-0.2,5.4-0.6l0.4,6.9c-2.6,0.9-5.4,1.3-8.2,1.2c-1.9,0.1-3.7-0.2-5.4-0.8
			c-1.7-0.7-3.3-1.7-4.6-3c-2.8-3.8-4.1-8.5-3.6-13.1v-27.7h-7.9v-6.9h8v-12.3L311.6,204.1z M341.9,245.5c-0.2,2.3,0.1,4.7,0.9,6.9
			c0.8,2.2,2.1,4.2,3.8,5.9c1.7,1.7,3.7,2.9,5.9,3.8s4.6,1.1,6.9,0.9c4.7,0.1,9.5-0.8,13.8-2.6l1.6,6.9c-5.4,2.2-11.1,3.3-17,3.1
			c-3.4,0.2-6.8-0.3-10-1.5c-3.2-1.2-6-3.1-8.4-5.5c-2.4-2.4-4.2-5.3-5.4-8.5c-1.2-3.2-1.6-6.6-1.3-10c0-15.2,9.1-27.3,23.9-27.3
			c16.6,0,20.8,14.5,20.8,23.8c0.1,1.4,0.1,2.9,0,4.3h-35.8L341.9,245.5z M369.1,238.6c0.3-1.8,0.1-3.7-0.4-5.5
			c-0.5-1.8-1.4-3.5-2.6-4.9c-1.2-1.4-2.7-2.6-4.4-3.3c-1.7-0.8-3.5-1.2-5.4-1.2c-3.8,0.3-7.4,2-10,4.7c-2.6,2.8-4.1,6.4-4.2,10.2
			H369.1z M391.6,234.4c0-6,0-11.1-0.4-15.8h8.3v9.9h0.4c0.9-3.1,2.7-5.8,5.2-7.7c2.5-2,5.5-3.1,8.7-3.3c0.9-0.1,1.8-0.1,2.6,0v8.6
			c-1.1-0.1-2.1-0.1-3.2,0c-3.1,0.1-6.1,1.4-8.4,3.5c-2.3,2.2-3.7,5.1-4,8.2c-0.3,1.4-0.4,2.9-0.4,4.3V269h-9.1v-34.6L391.6,234.4z"
			/>
		<path class="st2" d="M387.5,79.6c0.3,4.6-0.8,9.3-3.2,13.3c-2.4,4-5.9,7.2-10,9.3c-4.2,2-8.9,2.8-13.5,2.1
			c-4.6-0.7-8.9-2.7-12.4-5.8c-3.5-3.1-5.9-7.2-7-11.7s-0.9-9.3,0.7-13.7s4.4-8.2,8.2-11c3.8-2.8,8.2-4.3,12.9-4.5
			c3.1-0.2,6.1,0.3,9,1.3c2.9,1,5.5,2.6,7.8,4.6c2.3,2,4.1,4.5,5.4,7.3S387.4,76.6,387.5,79.6z"/>
		<path class="st3" d="M250.7,350.6c-62.3,0-117-22.3-145.3-55.4c11,29.7,30.8,55.3,56.8,73.4c26,18.1,56.9,27.8,88.5,27.8
			c31.7,0,62.6-9.7,88.5-27.8c26-18.1,45.8-43.7,56.8-73.4C367.8,328.3,313.3,350.6,250.7,350.6z"/>
		<path class="st3" d="M250.7,136c62.3,0,117,22.3,145.3,55.4c-11-29.7-30.8-55.3-56.8-73.4c-26-18.1-56.9-27.8-88.5-27.8
			c-31.7,0-62.6,9.7-88.5,27.8c-26,18.1-45.8,43.7-56.8,73.4C133.7,158.3,188.2,136,250.7,136z"/>
		<path class="st4" d="M165,414.9c0.4,5.9-1,11.7-4,16.8c-3,5.1-7.4,9.1-12.6,11.7c-5.3,2.6-11.2,3.5-17,2.7
			c-5.8-0.8-11.2-3.4-15.6-7.3c-4.4-3.9-7.5-9.1-8.9-14.7c-1.4-5.7-1.1-11.7,0.8-17.2c2-5.5,5.6-10.3,10.3-13.8
			c4.7-3.5,10.4-5.5,16.2-5.7c3.8-0.2,7.7,0.3,11.3,1.6c3.6,1.3,7,3.3,9.8,5.8c2.9,2.6,5.2,5.7,6.8,9.1
			C163.8,407.3,164.8,411,165,414.9z"/>
		<path class="st5" d="M112.5,128.5c-3.4,0.1-6.7-0.8-9.5-2.6c-2.8-1.8-5.1-4.4-6.5-7.4c-1.4-3.1-1.8-6.5-1.3-9.8
			c0.5-3.3,2.1-6.4,4.4-8.8c2.3-2.5,5.3-4.2,8.5-4.9c3.3-0.8,6.7-0.6,9.8,0.6c3.1,1.2,5.9,3.2,7.9,6c2,2.7,3.1,6,3.2,9.3
			c0.1,4.5-1.5,8.9-4.6,12.3C121.3,126.4,117,128.3,112.5,128.5z"/>
	</g>
</g>
</svg>
