<?xml version="1.0" encoding="utf-8"?>
<!-- Generator: Adobe Illustrator 28.0.0, SVG Export Plug-In . SVG Version: 6.00 Build 0)  -->
<svg version="1.1" id="Слой_1" xmlns="http://www.w3.org/2000/svg" xmlns:xlink="http://www.w3.org/1999/xlink" x="0px" y="0px"
	 viewBox="0 0 500 500" style="enable-background:new 0 0 500 500;" xml:space="preserve">
<style type="text/css">
	.st0{opacity:0.6;fill:#FDC30B;enable-background:new    ;}
	.st1{fill:#FFFFFF;}
	
		.st2{opacity:0.9;fill:none;stroke:#868686;stroke-width:0.856;stroke-linecap:round;stroke-linejoin:round;stroke-miterlimit:7.976;stroke-dasharray:0.407,0.8139;enable-background:new    ;}
	
		.st3{opacity:0.9;fill:none;stroke:#818282;stroke-width:0.856;stroke-linecap:square;stroke-linejoin:round;stroke-miterlimit:199.409;stroke-dasharray:0.407,0.8139;enable-background:new    ;}
	.st4{fill:#11567D;}
	.st5{opacity:0.6;fill:#3157A4;enable-background:new    ;}
	.st6{opacity:0.6;fill:#CAD400;enable-background:new    ;}
	.st7{opacity:0.6;fill:#EC691D;enable-background:new    ;}
	.st8{opacity:0.6;fill:#71C2B1;enable-background:new    ;}
	.st9{opacity:0.6;fill:#93C466;enable-background:new    ;}
	.st10{fill:#2D2D2D;}
</style>
<path class="st0" d="M380,500H120C53.7,500,0,446.3,0,380V120C0,53.7,53.7,0,120,0h260c66.3,0,120,53.7,120,120v260
	C500,446.3,446.3,500,380,500z"/>
<g>
	<path class="st1" d="M249.9,442.7c-51,0-99-19.9-135.1-56s-56-84.1-56-135.1s19.9-99,56-135.1s84.1-56,135.1-56s99,19.9,135.1,56
		s56,84.1,56,135.1s-19.9,99-56,135.1S301,442.7,249.9,442.7z"/>
	<path class="st2" d="M249.9,250.9H441 M249.9,250.9L385,115.8 M249.9,250.9V59.8 M249.9,250.9L114.8,115.8 M249.9,250.9H58.8
		 M249.9,250.9L114.8,386 M249.9,250.9V442 M249.9,250.9L385,386"/>
	<g>
		<path class="st3" d="M271.2,250.9l-0.6-5.1l-1.9-4.8l-3-4.2l-3.9-3.4l-4.6-2.3l-5-1.2l-5.2,0.1l-5,1.3l-4.5,2.5l-3.8,3.5l-2.8,4.3
			l-1.7,4.9l-0.5,5.2l0.8,5.1l2,4.8l3.1,4.1l4,3.3l4.7,2.2l5.1,1l5.2-0.3l4.9-1.5l4.4-2.7l3.7-3.7l2.7-4.4l1.5-4.9L271.2,250.9
			L271.2,250.9"/>
		<path class="st3" d="M313.6,250.9L313,242l-1.8-8.7l-3-8.3l-4.2-7.8l-5.2-7.2l-6.2-6.4l-7-5.5l-7.7-4.4l-8.2-3.3l-8.6-2.2
			l-8.8-0.9l-8.9,0.3l-8.7,1.5l-8.5,2.7l-8,3.9l-7.4,5l-6.6,5.9l-5.7,6.8l-4.7,7.5l-3.6,8.1l-2.4,8.5l-1.2,8.8v8.9l1.2,8.8l2.4,8.5
			l3.6,8.1l4.7,7.5l5.7,6.8l6.6,5.9l7.4,5l8,3.9l8.5,2.7l8.8,1.5l8.9,0.3l8.8-0.9l8.6-2.1l8.2-3.3l7.7-4.4l7-5.5l6.2-6.4l5.2-7.2
			l4.2-7.9l3-8.3l1.8-8.7L313.6,250.9L313.6,250.9"/>
		<path class="st3" d="M356.1,250.9l-0.6-11.1l-1.7-11l-2.9-10.7l-4-10.4l-5-9.9l-6.1-9.3l-7-8.6L321,172l-8.6-7l-9.3-6.1l-9.9-5
			l-10.4-4L272,147l-11-1.7l-11.1-0.6l-11.1,0.6l-11,1.7l-10.7,2.9l-10.4,4l-9.9,5l-9.3,6.1l-8.6,7l-7.9,7.9l-7,8.6l-6.1,9.3l-5,9.9
			l-4,10.4l-2.9,10.7l-1.7,11l-0.6,11.1l0.6,11.1l1.7,11l2.9,10.7l4,10.4l5,9.9l6.1,9.3l7,8.6l7.9,7.9l8.6,7l9.3,6.1l9.9,5l10.4,4
			l10.7,2.9l11,1.7l11.1,0.6l11.1-0.6l11-1.7l10.7-2.9l10.4-4l9.9-5l9.3-6.1l8.6-7l7.9-7.9l7-8.6l6.1-9.3l5-9.9l4-10.4l2.9-10.7
			l1.7-11L356.1,250.9L356.1,250.9"/>
		<path class="st3" d="M398.6,250.9l-0.8-15.5l-2.4-15.4l-4-15l-5.6-14.5l-7.1-13.9l-8.5-13l-9.8-12.1l-11-11l-12.1-9.8l-13-8.5
			l-13.9-7.1l-14.5-5.6l-15-4l-15.4-2.4l-15.5-0.8l-15.5,0.8l-15.4,2.4l-15,4l-14.5,5.6l-13.9,7.1l-13,8.5l-12.1,9.8l-11,11
			l-9.8,12.1l-8.5,13l-7.1,13.9l-5.6,14.5l-4,15l-2.4,15.4l-0.8,15.5l0.8,15.5l2.4,15.4l4,15l5.6,14.5l7.1,13.9l8.5,13l9.8,12.1
			l11,11l12.1,9.8l13,8.5l13.9,7.1l14.5,5.6l15,4l15.4,2.4l15.5,0.8l15.5-0.8l15.4-2.4l15-4l14.5-5.6l13.9-7.1l13-8.5l12.1-9.8
			l11-11l9.8-12.1l8.5-13l7.1-13.9l5.6-14.5l4-15l2.4-15.4L398.6,250.9L398.6,250.9"/>
	</g>
	<path class="st4" d="M250,445.5c-51.8,0-100.5-20.2-137.1-56.8s-56.8-85.3-56.8-137.1S76.2,151,112.9,114.4S198.2,57.6,250,57.6
		s100.5,20.2,137.1,56.8s56.8,85.3,56.8,137.1s-20.2,100.5-56.8,137.1S301.8,445.5,250,445.5z M250,63.3
		c-50.3,0-97.6,19.6-133.1,55.1C81.3,154,61.7,201.3,61.7,251.6s19.6,97.6,55.1,133.1s82.8,55.1,133.1,55.1s97.6-19.6,133.1-55.1
		s55.1-82.8,55.1-133.1s-19.6-97.6-55.1-133.1C347.6,82.9,300.3,63.3,250,63.3z"/>
	<path class="st5" d="M249.9,250.9l0.4-0.1l0.4-0.1l0.4-0.1l0.4-0.1l0.4-0.1l0.4-0.1l0.4-0.1l0.4-0.1l0.4-0.1l0.4-0.1l0.4-0.1
		l0.4-0.1l0.4-0.1l0.4-0.1l0.4-0.1l0.4-0.1l0.4-0.1l0.4-0.1l0.4-0.1l0.4-0.1l0.4-0.1l0.4-0.1l0.4-0.1l0.4-0.1l0.4-0.1l0.4-0.1
		l0.4-0.1l0.4-0.1l0.4-0.1l0.4-0.1l0.4-0.1l0.4-0.1l0.4-0.1l0.4-0.1l0.4-0.1l0.4-0.1l0.4-0.1l0.4-0.1l0.4-0.1l0.4-0.1l0.4-0.1
		l0.4-0.1l0.4-0.1l0.4-0.1l0.4-0.1l0.4-0.1l0.4-0.1l0.4-0.1l0.4-0.1l0.4-0.1l0.4-0.1l0.4-0.1l0.4-0.1l0.4-0.1l0.4-0.1l0.4-0.1
		l0.4-0.1l0.4-0.1l0.4-0.1l0.4-0.1l0.4-0.1l0.4-0.1l0.4-0.1l0.4-0.1l0.4-0.1l0.4-0.1l0.4-0.1l0.4-0.1l0.4-0.1l0.4-0.1l0.4-0.1
		l0.4-0.1l0.4-0.1l0.4-0.1l0.4-0.1l0.4-0.1l0.4-0.1l0.4-0.1l0.4-0.1l0.4-0.1l0.4-0.1l0.4-0.1l0.4-0.1l0.4-0.1l0.4-0.1l0.4-0.1
		l0.4-0.1l0.4-0.1l0.4-0.1l0.4-0.1l0.4-0.1l0.4-0.1l0.4-0.1l0.4-0.1l0.4-0.1l0.4-0.1l0.4-0.1l0.4-0.1l0.4-0.1l0.4-0.1l0.1,0.1l0,0.1
		l0,0.1l0,0.1l0,0.1l0,0.1l0,0.1l0,0.1l0,0.1l0,0.1l0,0.1l0,0.1l0,0.1l0,0.1l0,0.1l0,0.1l0,0.1l0,0.1l0,0.1l0,0.1l0,0.1l0,0.1l0,0.1
		l0,0.1l0,0.1l0,0.1l0,0.1l0,0.1l0,0.1l0,0.1l0,0.1l0,0.1l0,0.1l0,0.1l0,0.1l0,0.1l0,0.1l0,0.1l0,0.1l0,0.1l0,0.1l0,0.1l0,0.1l0,0.1
		l0,0.1l0,0.1l0,0.1l0,0.1l0,0.1l0,0.1l0,0.1l0,0.1l0,0.1l0,0.1l0,0.1l0,0.1l0,0.1l0,0.1l0,0.1l0,0.1l0,0.1l0,0.1l0,0.1l0,0.1l0,0.1
		l0,0.1l0,0.1l0,0.1l0,0.1l0,0.1l0,0.1l0,0.1l0,0.1l0,0.1l0,0.1l0,0.1l0,0.1l0,0.1l0,0.1l0,0.1l0,0.1l0,0.1l0,0.1l0,0.1l0,0.1l0,0.1
		l0,0.1l0,0.1l0,0.1l0,0.1l0,0.1l0,0.1l0,0.1l0,0.1l0,0.1l0,0.1v0.5h-42.1C250.3,250.9,249.9,250.9,249.9,250.9z"/>
	<path class="st6" d="M249.9,250.9l0.4-1.2l0.4-1.2l0.4-1.2l0.4-1.2l0.4-1.2l0.4-1.2l0.4-1.2l0.4-1.2l0.4-1.2l0.4-1.2l0.4-1.2
		l0.4-1.2l0.4-1.2l0.4-1.2l0.4-1.2l0.4-1.2l0.4-1.2l0.4-1.2l0.4-1.2l0.4-1.2l0.4-1.2l0.4-1.2l0.4-1.2l0.4-1.2l0.4-1.2l0.4-1.2
		l0.4-1.2l0.4-1.2l0.4-1.2l0.4-1.2l0.4-1.2l0.4-1.2l0.4-1.2l0.4-1.2l0.4-1.2l0.4-1.2l0.4-1.2l0.4-1.2l0.4-1.2l0.4-1.2l0.4-1.2
		l0.4-1.2l0.4-1.2l0.4-1.2l0.4-1.2l0.4-1.2l0.4-1.2l0.4-1.2l0.4-1.2l0.4-1.2l0.4-1.2l0.4-1.2l0.4-1.2l0.4-1.2l0.4-1.2l0.4-1.2
		l0.4-1.2l0.4-1.2l0.4-1.2l0.4-1.2l0.4-1.2l0.4-1.2l0.4-1.2l0.4-1.2l0.4-1.2l0.4-1.2l0.4-1.2l0.4-1.2l0.4-1.2l0.4-1.2l0.4-1.2
		l0.4-1.2l0.4-1.2l0.4-1.2l0.4-1.2l0.4-1.2l0.4-1.2l0.4-1.2l0.4-1.2l0.4-1.2l0.4-1.2l0.4-1.2l0.4-1.2l0.4-1.2l0.4-1.2l0.4-1.2
		l0.4-1.2l0.4-1.2l0.4-1.2l0.4-1.2l0.4-1.2l0.4-1.2l0.4-1.2l0.4-1.2l0.4-1.2l0.4-1.2l0.4-1.2l0.5-1.3l0.4-1.2l0.4-1.2l0.4,0.1
		l0.4,0.1l0.4,0.1l0.4,0.1l0.4,0.1l0.4,0.1l0.4,0.1l0.4,0.2l0.4,0.2l0.4,0.2l0.4,0.2l0.4,0.2l0.4,0.2l0.4,0.2l0.4,0.2l0.4,0.2
		l0.4,0.2l0.4,0.2l0.4,0.2l0.4,0.2l0.4,0.2l0.4,0.2l0.4,0.2l0.4,0.2l0.4,0.2l0.4,0.2l0.4,0.2l0.4,0.2l0.4,0.2l0.4,0.2l0.4,0.2
		l0.4,0.2l0.4,0.2l0.4,0.2l0.4,0.2l0.4,0.2l0.4,0.2l0.4,0.2l0.4,0.2l0.4,0.2l0.4,0.2l0.4,0.2l0.4,0.2l0.4,0.2l0.4,0.2l0.4,0.2
		l0.4,0.2l0.4,0.2l0.4,0.2l0.3,0.2l0.3,0.2l0.3,0.2l0.3,0.2l0.3,0.2l0.3,0.2l0.3,0.2l0.3,0.2l0.3,0.2l0.3,0.2l0.3,0.2l0.3,0.2
		l0.3,0.2l0.3,0.2l0.3,0.2l0.3,0.2l0.3,0.2l0.3,0.2l0.3,0.2l0.3,0.2l0.3,0.2l0.3,0.2l0.3,0.2l0.3,0.2l0.3,0.2l0.3,0.2l0.3,0.2
		l0.3,0.2l0.3,0.2l0.3,0.2l0.3,0.2l0.3,0.2l0.3,0.2l0.3,0.2l0.3,0.2l0.3,0.2l0.3,0.2l0.3,0.2l0.3,0.2l0.3,0.2l0.3,0.2l0.3,0.2
		l0.3,0.2l0.3,0.2l0.3,0.2l0.3,0.2l0.3,0.2l0.3,0.2l0.3,0.2l0.3,0.2l0.3,0.3l-0.8,1l-0.8,1l-0.8,1l-0.8,1l-0.8,1l-0.8,1l-0.8,1
		l-0.8,1l-0.8,1l-0.8,1l-0.8,1l-0.8,1l-0.8,1l-0.8,1l-0.8,1l-0.8,1l-0.8,1l-0.8,1l-0.8,1l-0.8,1l-0.8,1l-0.8,1l-0.8,1l-0.8,1l-0.8,1
		l-0.8,1l-0.8,1l-0.8,1l-0.8,1l-0.8,1l-0.8,1l-0.8,1l-0.8,1l-0.8,1l-0.8,1l-0.8,1l-0.8,1l-0.8,1l-0.8,1l-0.8,1l-0.8,1l-0.8,1l-0.8,1
		l-0.8,1l-0.8,1l-0.8,1l-0.8,1l-0.8,1l-0.8,1l-0.8,1l-0.8,1l-0.8,1l-0.8,1l-0.8,1l-0.8,1l-0.8,1l-0.8,1l-0.8,1l-0.8,1l-0.8,1l-0.8,1
		l-0.8,1l-0.8,1l-0.8,1l-0.8,1l-0.8,1l-0.8,1l-0.8,1l-0.8,1l-0.8,1l-0.8,1l-0.8,1l-0.8,1l-0.8,1l-0.8,1l-0.8,1l-0.8,1l-0.8,1l-0.8,1
		l-0.8,1l-0.8,1l-0.8,1l-0.8,1l-0.8,1l-0.8,1l-0.8,1l-0.8,1l-0.8,1l-0.8,1l-0.8,1l-0.8,1l-0.8,1l-0.8,1l-0.8,1l-0.8,1l-0.8,1l-0.8,1
		l-0.8,1l-0.8,1L249.9,250.9L249.9,250.9z"/>
	<path class="st7" d="M249.9,250.9l-1.1-1.3l-1.1-1.3l-1.1-1.3l-1.1-1.3l-1.1-1.3l-1.1-1.3l-1.1-1.3l-1.1-1.3l-1.1-1.3l-1.1-1.3
		l-1.1-1.3l-1.1-1.3l-1.1-1.3l-1.1-1.3l-1.1-1.3l-1.1-1.3l-1.1-1.3l-1.1-1.3l-1.1-1.3l-1.1-1.3l-1.1-1.3l-1.1-1.3l-1.1-1.3l-1.1-1.3
		l-1.1-1.3l-1.1-1.3l-1.1-1.3l-1.1-1.3l-1.1-1.3l-1.1-1.3l-1.1-1.3l-1.1-1.3l-1.1-1.3l-1.1-1.3l-1.1-1.3l-1.1-1.3l-1.1-1.3l-1.1-1.3
		l-1.1-1.3l-1.1-1.3l-1.1-1.3l-1.1-1.3l-1.1-1.3l-1.1-1.3l-1.1-1.3l-1.1-1.3l-1.1-1.3l-1.1-1.3l-1.1-1.3l-1.1-1.3l-1.1-1.3l-1.1-1.3
		l-1.1-1.3l-1.1-1.3l-1.1-1.3l-1.1-1.3l-1.1-1.3l-1.1-1.3l-1.1-1.3l-1.1-1.3l-1.1-1.3l-1.1-1.3l-1.1-1.3l-1.1-1.3l-1.1-1.3l-1.1-1.3
		l-1.1-1.3l-1.1-1.3l-1.1-1.3l-1.1-1.3l-1.1-1.3l-1.1-1.3l-1.1-1.3l-1.1-1.3l-1.1-1.3l-1.1-1.3l-1.1-1.3l-1.1-1.3l-1.1-1.3l-1.1-1.3
		l-1.1-1.3l-1.1-1.3l-1.1-1.3l-1.1-1.3l-1.1-1.3l-1.1-1.3l-1.1-1.3l-1.1-1.3l-1.1-1.3l-1.1-1.3l-1.1-1.3l-1.1-1.3l-1.1-1.3l-1.1-1.3
		l-1.1-1.3l-1.1-1.3l-1.1-1.3l-1.1-1.3l-1.1-1.3l-1.1-1.3l0.6-0.5l0.6-0.5l0.6-0.5l0.6-0.5l0.6-0.5l0.6-0.5l0.6-0.5l0.6-0.5l0.6-0.5
		l0.6-0.5l0.6-0.5l0.6-0.5l0.6-0.5l0.6-0.5l0.6-0.5l0.7-0.5l0.7-0.5l0.7-0.5l0.7-0.5l0.7-0.5l0.7-0.5l0.7-0.4l0.7-0.4l0.7-0.4
		l0.7-0.4l0.7-0.4l0.7-0.4l0.7-0.4l0.7-0.4l0.7-0.4l0.7-0.4l0.7-0.4l0.7-0.4l0.7-0.4l0.7-0.4l0.7-0.4l0.7-0.4l0.7-0.4l0.7-0.4
		l0.7-0.4l0.7-0.4l0.7-0.4l0.7-0.4l0.7-0.4l0.7-0.4l0.7-0.4l0.7-0.4l0.7-0.4l0.7-0.4l0.7-0.4l0.7-0.4l0.7-0.4l0.7-0.3l0.7-0.3
		l0.7-0.3l0.7-0.3l0.7-0.3l0.7-0.3l0.7-0.3l0.7-0.3l0.7-0.3l0.7-0.3l0.7-0.3l0.7-0.3l0.7-0.3l0.7-0.3l0.7-0.3l0.7-0.3l0.7-0.3
		l0.7-0.3l0.7-0.3l0.8-0.3l0.8-0.3l0.8-0.3l0.8-0.3l0.8-0.3l0.8-0.3l0.8-0.3l0.8-0.3l0.8-0.3l0.8-0.3l0.8-0.2l0.8-0.2l0.8-0.2
		l0.8-0.2l0.8-0.2l0.8-0.2l0.8-0.2l0.8-0.2l0.8-0.2l0.8-0.2l0.8-0.2l0.8-0.2l0.8-0.2l0.8-0.2L209,86l0.8-0.2l0.8-0.2l0.8-0.2
		l0.8-0.2l0.4,1.7l0.4,1.7l0.4,1.7l0.4,1.7l0.4,1.7l0.4,1.7l0.4,1.7l0.4,1.7l0.4,1.7l0.4,1.7l0.4,1.7l0.4,1.7l0.4,1.7l0.4,1.7
		l0.4,1.7l0.4,1.7l0.4,1.7l0.4,1.7l0.4,1.7l0.4,1.7l0.4,1.7l0.4,1.7l0.4,1.7l0.4,1.7l0.4,1.7l0.4,1.7l0.4,1.7l0.4,1.7l0.4,1.7
		l0.4,1.7l0.4,1.7l0.4,1.7l0.4,1.7l0.4,1.7l0.4,1.7l0.4,1.7l0.4,1.7l0.4,1.7l0.4,1.7l0.4,1.7l0.4,1.7l0.4,1.7l0.4,1.7l0.4,1.7
		l0.4,1.7l0.4,1.7l0.4,1.7l0.4,1.7l0.4,1.7l0.4,1.7l0.4,1.7l0.4,1.7l0.4,1.7l0.4,1.7l0.4,1.7l0.4,1.7l0.4,1.7l0.4,1.7l0.4,1.7
		l0.4,1.7l0.4,1.7l0.4,1.7l0.4,1.7l0.4,1.7l0.4,1.7l0.4,1.7l0.4,1.7l0.4,1.7l0.4,1.7l0.4,1.7l0.4,1.7l0.4,1.7l0.4,1.7l0.4,1.7
		l0.4,1.7l0.4,1.7l0.4,1.7l0.4,1.7l0.4,1.7l0.4,1.7l0.4,1.7l0.4,1.7l0.4,1.7l0.4,1.7l0.4,1.7l0.4,1.7l0.4,1.7l0.4,1.7l0.4,1.7
		l0.4,1.7l0.4,1.7l0.4,1.7l0.4,1.7l0.4,1.7l0.4,1.7l0.4,1.7l0.4,1.7l0.4,1.7l0.4,1.7L249.9,250.9L249.9,250.9z"/>
	<path class="st0" d="M249.9,250.9l-1.5,0.3l-1.5,0.3l-1.5,0.3l-1.5,0.3l-1.5,0.3l-1.5,0.3l-1.5,0.3l-1.5,0.3l-1.5,0.3l-1.4,0.3
		l-1.5,0.3l-1.5,0.3l-1.5,0.3l-1.5,0.3l-1.5,0.3l-1.5,0.3l-1.5,0.3l-1.5,0.3l-1.5,0.3l-1.5,0.3l-1.5,0.3l-1.4,0.3l-1.5,0.3l-1.5,0.3
		l-1.5,0.3l-1.5,0.3l-1.5,0.3l-1.5,0.3l-1.5,0.3l-1.5,0.3l-1.5,0.3l-1.5,0.3l-1.5,0.3l-1.5,0.3l-1.5,0.3l-1.5,0.3l-1.5,0.3l-1.5,0.3
		l-1.5,0.3l-1.5,0.3l-1.5,0.3l-1.5,0.3l-1.5,0.3l-1.5,0.3l-1.5,0.3l-1.5,0.3l-1.5,0.3l-1.5,0.3l-1.5,0.3l-1.4,0.3l-1.5,0.3l-1.5,0.3
		l-1.5,0.3l-1.5,0.3l-1.5,0.3l-1.5,0.3l-1.5,0.3l-1.5,0.3l-1.5,0.3l-1.5,0.3l-1.5,0.3l-1.5,0.3l-1.5,0.3l-1.5,0.3l-1.5,0.3l-1.5,0.3
		l-1.5,0.3l-1.5,0.3l-1.5,0.3l-1.5,0.3l-1.5,0.3l-1.5,0.3l-1.5,0.3l-1.5,0.3l-1.5,0.3l-1.5,0.3l-1.5,0.3l-1.5,0.3l-1.5,0.3l-1.5,0.3
		l-1.5,0.3l-1.5,0.3l-1.5,0.3l-1.5,0.3l-1.5,0.3l-1.4,0.2l-1.5,0.3l-1.5,0.3l-1.5,0.3l-1.5,0.3l-1.5,0.3l-1.5,0.3l-1.5,0.3l-1.5,0.3
		l-1.5,0.3l-1.5,0.3l-1.5,0.3l-1.5,0.3l-1.5,0.3l-1.5,0.3l-0.2-0.9l-0.2-0.9l-0.2-0.9l-0.1-0.9l-0.1-0.9l-0.1-0.9l-0.1-0.9l-0.1-0.9
		l-0.1-0.9l-0.1-0.9l-0.1-0.9l-0.1-0.9l-0.1-0.9l-0.1-0.9l-0.1-0.9l-0.1-0.9l-0.1-0.9l-0.1-0.9l-0.1-0.9l-0.1-0.9l0-0.9l0-0.9l0-0.9
		l0-0.9l0-0.9l0-0.9l0-0.9l0-0.9v-0.9l0-0.9l0-0.9l0-0.9l0-0.9l0-0.9l0-0.9l0-0.9l0-0.9l0.1-0.9l0.1-0.9l0.1-0.9l0.1-0.9l0.1-0.9
		l0.1-0.9l0.1-0.9l0.1-0.9l0.1-0.9l0.1-0.9l0.1-0.9l0.1-0.9l0.1-0.9l0.1-0.9l0.1-0.9l0.1-0.9l0.1-0.9l0.2-0.9l0.2-0.9l0.2-0.9
		l0.2-0.9l0.2-0.9l0.2-0.9l0.2-0.9l0.2-0.9l0.2-0.9l0.2-0.9l0.2-0.9l0.2-0.9l0.2-0.9l0.2-0.9l0.2-0.9l0.2-0.9l0.2-0.9l0.3-0.9
		l0.3-0.9l0.3-0.9l0.3-0.9l0.3-0.9l0.3-0.9l0.3-0.9l0.3-0.9l0.3-0.9l0.3-0.9l0.3-0.9l0.3-0.9l0.3-0.9l0.3-0.9l0.3-0.9l0.3-0.9
		l0.3-0.9l0.3-0.9l0.4-0.9l0.4-0.9l0.4-0.9l0.4-0.9l0.4-0.9l0.4-0.9l0.4-0.9l0.4-0.9l0.4-0.8l0.4-0.8l0.4-0.8l1.3,0.6l1.3,0.6
		l1.3,0.6l1.3,0.6l1.3,0.6l1.3,0.6l1.3,0.6l1.3,0.6l1.3,0.6l1.3,0.6l1.3,0.6l1.3,0.6l1.3,0.6l1.3,0.6l1.3,0.6l1.3,0.6l1.3,0.6
		l1.3,0.6l1.3,0.6l1.3,0.6l1.3,0.6l1.3,0.6l1.3,0.6l1.3,0.6l1.3,0.6l1.3,0.6l1.3,0.6l1.3,0.6l1.3,0.6l1.3,0.6l1.3,0.6l1.3,0.6
		l1.3,0.6l1.3,0.6l1.3,0.6l1.3,0.6l1.3,0.6l1.3,0.6l1.3,0.6l1.3,0.6l1.3,0.6l1.3,0.6l1.3,0.6l1.3,0.6l1.3,0.6l1.3,0.6l1.3,0.6
		l1.3,0.6l1.3,0.6l1.3,0.6l1.3,0.6l1.3,0.6l1.3,0.6l1.3,0.6l1.3,0.6l1.3,0.6l1.3,0.6l1.3,0.6l1.3,0.6l1.3,0.6l1.3,0.6l1.3,0.6
		l1.3,0.6l1.3,0.6l1.3,0.6l1.3,0.6l1.3,0.6l1.3,0.6l1.3,0.6l1.3,0.6l1.3,0.6l1.3,0.6l1.3,0.6l1.3,0.6l1.3,0.6l1.3,0.6l1.3,0.6
		l1.3,0.6l1.3,0.6l1.3,0.6l1.3,0.6l1.3,0.6l1.3,0.6l1.3,0.6l1.3,0.6l1.3,0.6l1.3,0.6l1.3,0.6l1.3,0.6l1.3,0.6l1.3,0.6l1.3,0.6
		l1.3,0.6l1.3,0.6l1.3,0.6l1.3,0.6l1.3,0.6l1.3,0.6l1.3,0.6L249.9,250.9L249.9,250.9z"/>
	<path class="st8" d="M249.9,250.9l-0.7,0.5l-0.7,0.5l-0.7,0.5l-0.7,0.5l-0.7,0.5l-0.7,0.5l-0.7,0.5l-0.7,0.5l-0.7,0.5l-0.7,0.5
		l-0.7,0.5l-0.7,0.5l-0.7,0.5l-0.7,0.5l-0.7,0.5l-0.7,0.5l-0.7,0.5l-0.7,0.5l-0.7,0.5l-0.7,0.5l-0.7,0.5l-0.7,0.5l-0.7,0.5l-0.7,0.5
		l-0.7,0.5l-0.7,0.5l-0.7,0.5l-0.7,0.5l-0.7,0.5l-0.7,0.5l-0.7,0.5l-0.7,0.5l-0.7,0.5l-0.7,0.5l-0.7,0.5l-0.7,0.5l-0.7,0.5l-0.7,0.5
		l-0.7,0.5l-0.7,0.5l-0.7,0.5l-0.7,0.5l-0.7,0.5l-0.7,0.5l-0.7,0.5l-0.7,0.5l-0.7,0.5l-0.7,0.5l-0.7,0.5l-0.7,0.5l-0.7,0.5l-0.7,0.5
		l-0.7,0.5l-0.7,0.5l-0.7,0.4l-0.7,0.5l-0.7,0.5l-0.7,0.5l-0.7,0.5l-0.7,0.5l-0.7,0.5l-0.7,0.5l-0.7,0.5l-0.7,0.5l-0.7,0.5l-0.7,0.5
		l-0.7,0.5l-0.7,0.5l-0.7,0.5l-0.7,0.5l-0.7,0.5l-0.7,0.5l-0.7,0.5l-0.7,0.5l-0.7,0.5l-0.7,0.5l-0.7,0.5l-0.7,0.5l-0.7,0.5l-0.7,0.5
		l-0.7,0.5l-0.7,0.5l-0.7,0.5l-0.7,0.5l-0.7,0.5l-0.7,0.5l-0.7,0.5l-0.7,0.5l-0.7,0.5l-0.7,0.5l-0.7,0.5l-0.7,0.5l-0.7,0.5l-0.7,0.5
		l-0.7,0.5l-0.7,0.5l-0.7,0.5l-0.7,0.5l-0.7,0.4l-0.7,0.5l-0.1-0.1L180,299l-0.1-0.1l-0.1-0.1l-0.1-0.1l-0.1-0.1l-0.1-0.1l-0.1-0.1
		l-0.1-0.1l-0.1-0.1l-0.1-0.1l-0.1-0.1l-0.1-0.1l-0.1-0.1l-0.1-0.1l-0.1-0.1l-0.1-0.1l-0.1-0.1l-0.1-0.1l-0.1-0.1l-0.1-0.1l-0.1-0.1
		l-0.1-0.1l-0.1-0.1l-0.1-0.1l-0.1-0.1l-0.1-0.1l-0.1-0.1L178,296l-0.1-0.1l-0.1-0.1l-0.1-0.1l-0.1-0.1l-0.1-0.1l-0.1-0.1l-0.1-0.1
		l-0.1-0.1l-0.1-0.1l-0.1-0.1l-0.1-0.1l-0.1-0.1l-0.1-0.1l-0.1-0.1l-0.1-0.1l-0.1-0.1l-0.1-0.1l-0.1-0.1l-0.1-0.1l-0.1-0.1l-0.1-0.1
		l-0.1-0.1l-0.1-0.1l-0.1-0.1l-0.1-0.1l-0.1-0.1l-0.1-0.1l-0.1-0.1l-0.1-0.1l-0.1-0.1l-0.1-0.1l-0.1-0.1l-0.1-0.1l-0.1-0.1l-0.1-0.1
		l-0.1-0.1l-0.1-0.1l-0.1-0.1l-0.1-0.1l-0.1-0.1l-0.1-0.1l-0.1-0.1l-0.1-0.1l-0.1-0.1l-0.1-0.1l-0.1-0.1l-0.1-0.1l-0.1-0.1l-0.1-0.1
		l-0.1-0.1l-0.1-0.1l-0.1-0.1l-0.1-0.1l-0.1-0.1l-0.1-0.1l-0.1-0.1l-0.1-0.1l-0.1-0.1l-0.1-0.1l-0.1-0.1l-0.1-0.1l-0.1-0.1l-0.1-0.1
		l-0.1-0.1l-0.1-0.1l-0.1-0.1l-0.1-0.1l-0.1-0.1l-0.1-0.1l-0.1-0.1l-0.1-0.1l0.8-0.4l0.8-0.4l0.8-0.4l0.8-0.4l0.8-0.4l0.8-0.4
		l0.8-0.4l0.8-0.4l0.8-0.4l0.8-0.4l0.8-0.4l0.8-0.4l0.8-0.4l0.8-0.4l0.8-0.4l0.8-0.4l0.8-0.4l0.8-0.4l0.8-0.4l0.8-0.4l0.8-0.4
		l0.8-0.4l0.8-0.4l0.8-0.4l0.8-0.4l0.8-0.4l0.8-0.4l0.8-0.4l0.8-0.4l0.8-0.4l0.8-0.4l0.8-0.4l0.8-0.4l0.8-0.4l0.8-0.4l0.8-0.4
		l0.8-0.4l0.8-0.4l0.8-0.4l0.8-0.4l0.8-0.4l0.8-0.4l0.8-0.4l0.8-0.4l0.8-0.4l0.8-0.4l0.8-0.4l0.8-0.4l0.8-0.4l0.8-0.4l0.8-0.4
		l0.8-0.4l0.8-0.4l0.8-0.4l0.8-0.4l0.8-0.4l0.8-0.4l0.8-0.4l0.8-0.4l0.8-0.4l0.8-0.4l0.8-0.4l0.8-0.4l0.8-0.4l0.8-0.4l0.8-0.4
		l0.8-0.4l0.8-0.4l0.8-0.4l0.8-0.4l0.8-0.4l0.8-0.4l0.8-0.4l0.8-0.4l0.8-0.4l0.8-0.4l0.8-0.4l0.8-0.4l0.8-0.4l0.8-0.4l0.8-0.4
		l0.8-0.4l0.8-0.4l0.8-0.4l0.8-0.4l0.8-0.4l0.8-0.4l0.8-0.4l0.8-0.4l0.8-0.4l0.8-0.4l0.8-0.4l0.8-0.4l0.8-0.4l0.8-0.4l0.8-0.4
		l0.8-0.4l0.8-0.4l0.8-0.4L249.9,250.9L249.9,250.9z"/>
	<path class="st9" d="M249.9,250.9l0.2,1l0.2,1l0.2,1l0.2,1l0.2,1l0.2,1l0.2,1l0.2,1l0.2,1l0.2,1l0.2,1l0.2,1l0.2,1l0.2,1l0.2,1
		l0.2,1l0.2,1l0.2,1l0.2,1l0.2,1l0.2,1l0.2,1l0.2,1l0.2,1l0.2,1l0.2,1l0.2,1l0.2,1l0.2,1l0.2,1l0.2,1l0.2,1l0.2,1l0.2,1l0.2,1l0.2,1
		l0.2,1l0.2,1l0.2,1l0.2,1l0.2,1l0.2,1l0.2,1l0.2,1l0.2,1l0.2,1l0.2,1l0.2,1l0.2,1l0.2,1l0.2,1l0.2,1l0.2,1l0.2,1l0.2,1l0.2,1l0.2,1
		l0.2,1l0.2,1l0.2,1l0.2,1l0.2,1l0.2,1l0.2,1l0.2,1l0.2,1l0.2,1l0.2,1l0.2,1l0.2,1l0.2,1l0.2,1l0.2,1l0.2,1l0.2,1l0.2,1l0.2,1l0.2,1
		l0.2,1l0.2,1l0.2,1l0.2,1l0.2,1l0.2,1l0.2,1l0.2,1l0.2,1l0.2,1l0.2,1l0.2,1l0.2,1l0.2,1l0.2,1l0.2,1l0.2,1l0.2,1l0.2,1l0.2,1l0.2,1
		l0.2,1l-0.4,0.1l-0.4,0.1l-0.4,0.1l-0.4,0.1l-0.4,0.1l-0.4,0.1l-0.4,0.1l-0.4,0.1l-0.4,0.1l-0.4,0.1l-0.4,0.1l-0.4,0.1l-0.4,0.1
		l-0.4,0l-0.4,0l-0.4,0l-0.4,0l-0.4,0l-0.4,0l-0.4,0l-0.4,0l-0.4,0l-0.4,0l-0.4,0l-0.4,0l-0.4,0l-0.4,0l-0.4,0l-0.4,0l-0.4,0l-0.4,0
		l-0.4,0l-0.4,0l-0.4,0l-0.4,0l-0.4,0l-0.4,0l-0.4,0l-0.4,0l-0.4,0l-0.4,0l-0.4,0h-0.8l-0.4,0l-0.4,0l-0.4,0l-0.4,0l-0.4,0l-0.4,0
		l-0.4,0l-0.5-0.1l-0.4,0l-0.4,0l-0.4,0l-0.4,0l-0.4,0l-0.4,0l-0.4,0l-0.4,0l-0.4,0l-0.4,0l-0.4,0l-0.4,0l-0.4,0l-0.4,0l-0.4,0
		l-0.4,0l-0.4,0l-0.4,0l-0.4,0l-0.4,0l-0.4,0l-0.4-0.1l-0.4-0.1l-0.4-0.1l-0.4-0.1l-0.4-0.1l-0.4-0.1l-0.4-0.1l-0.4-0.1l-0.4-0.1
		l-0.4-0.1l-0.4-0.1l-0.4-0.1l-0.4-0.1l-0.4-0.1l-0.4-0.1l-0.4-0.1l-0.4-0.1l-0.4-0.1l-0.4-0.1l-0.4-0.1l-0.4-0.1l-0.4-0.1l-0.4-0.1
		l-0.4-0.1l-0.4-0.1l-0.4-0.1l-0.4-0.1l0.2-1l0.2-1l0.2-1l0.2-1l0.2-1l0.2-1l0.2-1l0.2-1l0.2-1l0.2-1l0.2-1l0.2-1l0.2-1l0.2-1l0.2-1
		l0.2-1l0.2-1l0.2-1l0.2-1l0.2-1l0.2-1l0.2-1l0.2-1l0.2-1l0.2-1l0.2-1l0.2-1l0.2-1l0.2-1l0.2-1l0.2-1l0.2-1l0.2-1l0.2-1l0.2-1l0.2-1
		l0.2-1l0.2-1l0.2-1l0.2-1l0.2-1l0.2-1l0.2-1l0.2-1l0.2-1l0.2-1l0.2-1l0.2-1l0.2-1l0.2-1l0.2-1l0.2-1l0.2-1l0.2-1l0.2-1l0.2-1l0.2-1
		l0.2-1l0.2-1l0.2-1l0.2-1l0.2-1l0.2-1l0.2-1l0.2-1l0.2-1l0.2-1l0.2-1l0.2-1l0.2-1l0.2-1l0.2-1l0.2-1l0.2-1l0.2-1l0.2-1l0.2-1l0.2-1
		l0.2-1l0.2-1l0.2-1l0.2-1l0.2-1l0.2-1l0.2-1l0.2-1l0.2-1l0.2-1l0.2-1l0.2-1l0.2-1l0.2-1l0.2-1l0.2-1l0.2-1l0.2-1l0.2-1l0.2-1l0.2-1
		L249.9,250.9L249.9,250.9z"/>
	<path class="st7" d="M249.9,250.9l1.3,1l1.3,1l1.3,1l1.3,1l1.3,1l1.3,1l1.3,1l1.3,1l1.3,1l1.3,1l1.3,1l1.3,1l1.3,1l1.3,1l1.4,1
		l1.3,1l1.3,1l1.3,1l1.3,1l1.3,1l1.3,1l1.3,1l1.3,1l1.3,1l1.3,1l1.3,1l1.3,1l1.3,1l1.3,1l1.3,1l1.3,1l1.3,1l1.3,1l1.3,1l1.3,1l1.3,1
		l1.3,1l1.3,1l1.3,1l1.3,1l1.3,1l1.3,1l1.3,1l1.3,1l1.3,1l1.3,1l1.3,1l1.3,1l1.3,1l1.3,1l1.3,1l1.3,1l1.3,1l1.3,1l1.3,1l1.3,1l1.3,1
		l1.3,1l1.3,1l1.3,1l1.3,1l1.3,1l1.3,1l1.3,1l1.3,1l1.3,1l1.3,1l1.3,1l1.3,1l1.3,1l1.3,1l1.3,1l1.3,1l1.3,1l1.3,1l1.3,1l1.3,1l1.3,1
		l1.3,1l1.3,1l1.3,1l1.3,1l1.3,1l1.3,1l1.3,1l1.3,1l1.3,1l1.3,1l1.3,1l1.3,1l1.3,1l1.3,1l1.3,1l1.3,1l1.3,1l1.3,1l1.3,1l1.3,1l1.3,1
		l1.3,1l-0.2,0.3l-0.2,0.3l-0.2,0.3l-0.2,0.3l-0.3,0.3l-0.3,0.3l-0.3,0.3l-0.3,0.3l-0.3,0.3l-0.3,0.3l-0.3,0.3l-0.3,0.3l-0.3,0.3
		l-0.3,0.3l-0.3,0.3l-0.3,0.3l-0.3,0.3l-0.3,0.3l-0.3,0.3l-0.3,0.3l-0.3,0.3l-0.3,0.3l-0.3,0.3l-0.3,0.3l-0.3,0.3l-0.3,0.3l-0.3,0.3
		l-0.3,0.3l-0.3,0.3l-0.3,0.3l-0.3,0.3l-0.3,0.3l-0.3,0.3l-0.3,0.3l-0.3,0.3l-0.3,0.3l-0.3,0.3l-0.3,0.3l-0.3,0.3l-0.3,0.3l-0.3,0.3
		l-0.3,0.3l-0.3,0.3l-0.3,0.3l-0.3,0.3l-0.3,0.3l-0.3,0.3l-0.3,0.3l-0.3,0.3l-0.3,0.3l-0.3,0.3l-0.3,0.3l-0.3,0.3l-0.3,0.3l-0.3,0.3
		l-0.3,0.3l-0.3,0.3l-0.3,0.3l-0.3,0.3l-0.3,0.3l-0.3,0.3l-0.3,0.3l-0.3,0.3l-0.3,0.3l-0.3,0.3l-0.3,0.3l-0.3,0.3l-0.3,0.3l-0.3,0.3
		l-0.3,0.3l-0.3,0.3l-0.3,0.3l-0.2,0.2l-0.3,0.3l-0.3,0.3l-0.3,0.3l-0.3,0.3l-0.3,0.3l-0.3,0.3l-0.3,0.3l-0.3,0.3l-0.3,0.3l-0.3,0.3
		l-0.3,0.3l-0.3,0.3l-0.3,0.3l-0.3,0.3l-0.3,0.3l-0.3,0.3l-0.3,0.3l-0.3,0.3l-0.3,0.3l-0.3,0.3l-0.3,0.3l-0.3,0.3l-0.3,0.3l-0.3,0.3
		l-0.3,0.3l-0.3,0.3l-0.3,0.3l-1.1-1.3l-1.1-1.3l-1.1-1.3l-1.1-1.3l-1.1-1.3l-1.1-1.3l-1.1-1.3l-1.1-1.3l-1.1-1.3l-1.1-1.3l-1.1-1.3
		l-1.1-1.3l-1.1-1.3l-1.1-1.3l-1.1-1.3l-1.1-1.3l-1.1-1.3l-1.1-1.3l-1.1-1.3l-1.1-1.3l-1.1-1.3l-1.1-1.3l-1.1-1.3l-1.1-1.3l-1.1-1.3
		l-1-1.3l-1.1-1.3l-1.1-1.3l-1.1-1.3l-1.1-1.3l-1.1-1.3l-1.1-1.3l-1.1-1.3l-1.1-1.3l-1.1-1.3l-1.1-1.3l-1.1-1.3l-1.1-1.3l-1.1-1.3
		l-1.1-1.3l-1.1-1.3l-1.1-1.3l-1.1-1.3l-1.1-1.3l-1.1-1.3l-1.1-1.3l-1.1-1.3l-1.1-1.3l-1.1-1.3l-1.1-1.3l-1.1-1.3l-1.1-1.3l-1.1-1.3
		l-1.1-1.3l-1.1-1.3l-1.1-1.3l-1.1-1.3l-1.1-1.3l-1.1-1.3l-1.1-1.3l-1.1-1.3l-1.1-1.3l-1.1-1.3l-1.1-1.3l-1.1-1.3l-1.1-1.3l-1.1-1.3
		l-1.1-1.3l-1.1-1.3l-1.1-1.3l-1.1-1.3l-1.1-1.3l-1.1-1.3l-1.1-1.3l-1.1-1.3l-1.1-1.3l-1.1-1.3l-1.1-1.3l-1.1-1.3l-1.1-1.3L270,276
		l-1.1-1.3l-1.1-1.3l-1.1-1.3l-1.1-1.3l-1.1-1.3l-1.1-1.3l-1.1-1.3l-1.1-1.3l-1.1-1.3l-1.1-1.3l-1.1-1.3l-1.1-1.3l-1.1-1.3l-1.1-1.3
		l-1.1-1.3l-1.1-1.3l-1.1-1.3l-1.1-1.3L249.9,250.9L249.9,250.9z"/>
	<path class="st10" d="M292.4,252.2l-42.5,0c-0.7,0-1.3-0.6-1.3-1.3c0-0.5,0.4-1,0.9-1.2l40.4-13.1c0.7-0.2,1.4,0.1,1.6,0.8
		c0,0,0,0,0,0c1.4,4.4,2.1,8.9,2.1,13.5C293.7,251.6,293.1,252.2,292.4,252.2C292.4,252.2,292.4,252.2,292.4,252.2z M258.1,249.6h33
		c-0.1-3.5-0.6-6.9-1.6-10.2L258.1,249.6z"/>
	<path class="st10" d="M249.9,252.2c-0.7,0-1.3-0.6-1.3-1.3c0-0.2,0-0.3,0.1-0.4l44.8-119.3c0.2-0.7,1-1,1.7-0.8c0,0,0,0,0,0
		c12.6,4.7,24.5,11.4,35,19.9c0.6,0.4,0.7,1.3,0.2,1.8l-79.4,99.6C250.7,252,250.3,252.2,249.9,252.2z M295.4,133.3L254,243.7
		l73.5-92.2C317.8,143.9,307,137.7,295.4,133.3z"/>
	<path class="st10" d="M249.9,252.2c-0.4,0-0.7-0.2-1-0.5L140.1,121.3c-0.5-0.5-0.4-1.4,0.2-1.8c0,0,0,0,0,0
		C161,102.2,185.5,90,211.8,84c0.7-0.2,1.4,0.3,1.5,1l37.8,165.6c0.1,0.6-0.2,1.2-0.7,1.4C250.3,252.1,250.1,252.2,249.9,252.2z
		 M142.9,120.6l104.6,125.3L211.2,86.8C186.1,92.7,162.8,104.3,142.9,120.6z"/>
	<path class="st10" d="M103.7,278.7c-0.6,0-1.2-0.4-1.3-1.1c-5.7-30.9-1.3-63.5,12.4-91.8c0.3-0.6,1.1-0.9,1.7-0.6l133.9,64.5
		c0.6,0.3,0.9,1.1,0.6,1.7c-0.2,0.4-0.5,0.6-0.9,0.7l-146.2,26.5C103.8,278.7,103.8,278.7,103.7,278.7z M116.6,188.1
		c-12.8,27.1-17,58.2-11.9,87.8l141.1-25.6L116.6,188.1z"/>
	<path class="st10" d="M180.1,300.5c-0.4,0-0.8-0.2-1.1-0.6c-2.6-3.7-4.8-7.6-6.8-11.7c-0.3-0.6,0-1.4,0.6-1.7c0,0,0,0,0,0
		l76.5-36.9c0.6-0.3,1.4-0.1,1.7,0.6c0.3,0.6,0.1,1.3-0.4,1.7l-69.8,48.4C180.6,300.5,180.4,300.5,180.1,300.5z M175.1,288.3
		c1.6,3.1,3.4,6.2,5.3,9.1l55.2-38.3C235.7,259.2,175.1,288.3,175.1,288.3z"/>
	<path class="st10" d="M250,358.3c-8.1,0-16.2-0.9-24-2.7c-0.7-0.2-1.1-0.9-1-1.6l23.6-103.5c0.1-0.6,0.7-1.1,1.3-1
		c0.6,0,1.1,0.5,1.2,1.1L269,355.3c0.1,0.7-0.4,1.4-1.1,1.5C262,357.8,256,358.3,250,358.3z M227.8,353.4
		c12.5,2.7,25.7,3.1,38.4,1.1l-16.5-97C249.7,257.5,227.8,353.4,227.8,353.4z"/>
	<path class="st10" d="M355.8,385c-0.4,0-0.8-0.2-1-0.5L248.9,251.7c-0.4-0.6-0.4-1.4,0.2-1.8c0.5-0.4,1.1-0.4,1.6,0l134,104.4
		c0.6,0.4,0.7,1.3,0.2,1.8c-8.3,10.6-17.8,20.2-28.3,28.6C356.4,384.9,356.1,385,355.8,385z M257.7,258.6L356,381.9
		c9.6-7.8,18.4-16.6,26.1-26.3L257.7,258.6z"/>
</g>
</svg>
