<?xml version="1.0" encoding="utf-8"?>
<!-- Generator: Adobe Illustrator 28.0.0, SVG Export Plug-In . SVG Version: 6.00 Build 0)  -->
<svg version="1.1" id="Слой_1" xmlns="http://www.w3.org/2000/svg" xmlns:xlink="http://www.w3.org/1999/xlink" x="0px" y="0px"
	 viewBox="0 0 500 500" style="enable-background:new 0 0 500 500;" xml:space="preserve">
<style type="text/css">
	.st0{opacity:0.6;fill:#66BAAC;enable-background:new    ;}
	.st1{clip-path:url(#SVGID_00000070825365316192847460000018431740384009509046_);}
	.st2{fill-rule:evenodd;clip-rule:evenodd;fill:#FFFFFF;}
</style>
<path class="st0" d="M380,500H120C53.7,500,0,446.3,0,380V120C0,53.7,53.7,0,120,0h260c66.3,0,120,53.7,120,120v260
	C500,446.3,446.3,500,380,500z"/>
<g>
	<g>
		<defs>
			<rect id="SVGID_1_" x="74.4" y="74.2" width="351.4" height="351.4"/>
		</defs>
		<clipPath id="SVGID_00000038401418310194634190000006231573079010750601_">
			<use xlink:href="#SVGID_1_"  style="overflow:visible;"/>
		</clipPath>
		<g style="clip-path:url(#SVGID_00000038401418310194634190000006231573079010750601_);">
			<path class="st2" d="M398.1,347.9c-19.1-0.5-33.9,1.4-46.4,6.7c-3.6,1.4-9.3,1.4-9.8,5.9c1.9,1.9,2.1,5,3.8,7.6
				c2.9,4.8,7.9,11.2,12.4,14.5l15.3,10.9c9.3,5.7,19.8,9,28.9,14.7c5.3,3.3,10.5,7.6,15.8,11.2c2.7,1.9,4.3,5,7.6,6.2v-0.7
				c-1.7-2.1-2.2-5.2-3.8-7.6l-7.2-6.9c-6.9-9.3-15.5-17.3-24.9-24c-7.6-5.2-24.4-12.4-27.5-21.1l-0.5-0.5
				c5.2-0.5,11.5-2.4,16.5-3.8c8.1-2.1,15.5-1.7,23.9-3.8l11.5-3.3v-2.1c-4.3-4.3-7.4-10-11.9-14c-12.2-10.5-25.6-20.7-39.4-29.2
				c-7.4-4.7-17-7.8-24.9-11.9c-2.9-1.4-7.6-2.1-9.3-4.5c-4.3-5.2-6.7-12.1-9.8-18.3l-19.6-41.3c-4.3-9.3-6.9-18.5-12.2-27.1
				c-24.6-40.4-51.4-64.8-92.5-88.8c-8.8-5-19.4-7.1-30.5-9.7l-17.9-1c-3.8-1.7-7.6-6.2-11-8.3C121.1,89,86,70.4,76,94.9
				c-6.5,15.4,9.6,30.6,15,38.5c4.1,5.5,9.3,11.6,12.2,17.8c1.6,4,2.1,8.3,3.8,12.6c3.8,10.4,7.4,22.1,12.4,31.8
				c2.7,5,5.5,10.2,8.8,14.7c1.9,2.7,5.3,3.8,6,8.1c-3.3,4.8-3.6,11.9-5.5,17.8c-8.6,26.8-5.3,60.1,6.9,79.9
				c3.8,5.9,12.9,19,25.1,14c10.8-4.3,8.4-17.8,11.5-29.7c0.7-2.8,0.2-4.7,1.7-6.7v0.5l9.8,19.7c7.4,11.6,20.3,23.8,31.1,31.8
				c5.7,4.3,10.3,11.6,17.4,14.3v-0.7h-0.5c-1.4-2.1-3.6-3.1-5.5-4.7c-4.3-4.3-9.1-9.5-12.4-14.2c-10-13.3-18.9-28-26.8-43.2
				c-3.8-7.4-7.2-15.4-10.3-22.8c-1.4-2.9-1.4-7.1-3.8-8.5c-3.6,5.2-8.8,9.7-11.5,16.2c-4.5,10.2-5,22.8-6.7,35.9
				c-1,0.2-0.5,0-1,0.5c-7.6-1.9-10.3-9.7-13.1-16.4c-7.2-16.9-8.4-43.9-2.2-63.4c1.7-5,8.8-20.7,6-25.4c-1.4-4.5-6.2-7.1-8.8-10.7
				c-3.1-4.5-6.4-10.2-8.6-15.2c-5.7-13.3-8.6-28-14.8-41.3c-2.9-6.2-7.9-12.6-12-18.3c-4.5-6.4-9.6-10.9-13.1-18.5
				c-1.2-2.7-2.9-6.9-1-9.7c0.5-1.9,1.4-2.7,3.3-3.1c3.1-2.7,12,0.7,15.1,2.1c8.8,3.6,16.2,6.9,23.7,11.9c3.3,2.4,6.9,6.9,11.2,8.1
				h5c7.6,1.7,16.2,0.5,23.4,2.7c12.7,4,24.1,10,34.4,16.4c31.3,19.7,57.1,47.7,74.6,81.2c2.9,5.5,4.1,10.5,6.7,16.2
				c5,11.6,11.2,23.5,16.2,34.9c5,11.2,9.8,22.6,17,31.8c3.6,5,17.9,7.6,24.4,10.2c4.8,2.1,12.2,4,16.5,6.7
				c8.1,5,16.2,10.7,23.9,16.2c3.8,2.8,15.8,8.8,16.5,13.5L398.1,347.9z M154.4,141.5c-3.3,0-6.6,0.4-9.8,1.2v0.5h0.5
				c1.9,3.8,5.3,6.4,7.6,9.7l5.5,11.4l0.5-0.5c3.3-2.4,5-6.2,5-11.9c-1.4-1.7-1.7-3.3-2.9-5C159.4,144.6,156.3,143.4,154.4,141.5
				L154.4,141.5z"/>
		</g>
	</g>
</g>
</svg>
