<?xml version="1.0" encoding="utf-8"?>
<!-- Generator: Adobe Illustrator 28.0.0, SVG Export Plug-In . SVG Version: 6.00 Build 0)  -->
<svg version="1.1" id="Слой_1" xmlns="http://www.w3.org/2000/svg" xmlns:xlink="http://www.w3.org/1999/xlink" x="0px" y="0px"
	 viewBox="0 0 500 500" style="enable-background:new 0 0 500 500;" xml:space="preserve">
<style type="text/css">
	.st0{fill:#FFFFFF;stroke:#010202;stroke-miterlimit:10;}
	.st1{fill:#FFFFFF;}
	.st2{fill-rule:evenodd;clip-rule:evenodd;fill:#020203;}
</style>
<path class="st0" d="M380,500H120C53.7,500,0,446.3,0,380V120C0,53.7,53.7,0,120,0h260c66.3,0,120,53.7,120,120v260
	C500,446.3,446.3,500,380,500z"/>
<g>
	<path class="st1" d="M89,74.2l212.9-15.7c26.2-2.2,32.9-0.7,49.3,11.2l68,47.9c11.2,8.2,14.9,10.5,14.9,19.4v262.6
		c0,16.5-6,26.2-26.9,27.7l-247.2,15c-15.7,0.7-23.2-1.5-31.4-12l-50-65.1c-9-12-12.7-20.9-12.7-31.4V100.4
		C65.9,86.9,71.8,75.7,89,74.2z"/>
	<path class="st2" d="M301.9,58.5L89,74.2c-17.2,1.5-23.2,12.7-23.2,26.2v233.4c0,10.5,3.7,19.4,12.7,31.4l50,65.1
		c8.2,10.5,15.7,12.7,31.4,12l247.2-15c20.9-1.5,26.9-11.2,26.9-27.7V137c0-8.5-3.4-11-13.2-18.2l-69.7-49.1
		C334.8,57.7,328.1,56.2,301.9,58.5L301.9,58.5z M165.6,132.7c-20.2,1.4-24.8,1.7-36.2-7.7l-29.2-23.2c-3-3-1.5-6.7,6-7.5l204.7-15
		c17.2-1.5,26.1,4.5,32.9,9.7l35.1,25.4c1.5,0.8,5.2,5.2,0.7,5.2l-211.4,12.7L165.6,132.7L165.6,132.7z M142.1,397.4V174.5
		c0-9.7,3-14.2,11.9-15l242.8-14.2c8.2-0.7,12,4.5,12,14.2v221.4c0,9.7-1.5,18-14.9,18.7l-232.3,13.5
		C148,413.8,142.1,409.4,142.1,397.4L142.1,397.4z M371.4,186.4c1.5,6.7,0,13.5-6.7,14.2l-11.2,2.2v164.6
		c-9.7,5.2-18.7,8.2-26.2,8.2c-12,0-14.9-3.7-23.9-15l-73.2-115.2V357l23.2,5.2c0,0,0,13.5-18.7,13.5l-51.5,3c-1.5-3,0-10.5,5.2-12
		l13.5-3.7V215.6l-18.7-1.5c-1.5-6.7,2.2-16.5,12.7-17.2l55.3-3.7l76.2,116.7V206.6l-19.4-2.2c-1.5-8.2,4.5-14.2,11.9-15
		L371.4,186.4L371.4,186.4z"/>
</g>
</svg>
