<?xml version="1.0" encoding="utf-8"?>
<!-- Generator: Adobe Illustrator 28.0.0, SVG Export Plug-In . SVG Version: 6.00 Build 0)  -->
<svg version="1.1" id="Слой_1" xmlns="http://www.w3.org/2000/svg" xmlns:xlink="http://www.w3.org/1999/xlink" x="0px" y="0px"
	 viewBox="0 0 500 500" style="enable-background:new 0 0 500 500;" xml:space="preserve">
<style type="text/css">
	.st0{fill:#465D84;}
	.st1{fill:#4DABD0;}
	.st2{fill:#5074B8;}
</style>
<path class="st0" d="M380,500H120C53.7,500,0,446.3,0,380V120C0,53.7,53.7,0,120,0h260c66.3,0,120,53.7,120,120v260
	C500,446.3,446.3,500,380,500z"/>
<g>
	<g>
		<path class="st1" d="M339.1,320.1l0.1,85.2L263.6,443v-85.1L339.1,320.1z M429.8,274.6V360l-64.5,32.2l0-85.1L429.8,274.6z
			 M339,206.1l0.1,84.3l-75.5,37.5v-84.3L339,206.1z M429.8,160.9v83.8l-64.5,32.8l-0.1-84.5L429.8,160.9z M252.1,151l67.5,34.1
			l-70,35.1L183.4,187L252.1,151z M158.3,103.7l64.3,32.5l-68.9,35.9l-66.1-33.2L158.3,103.7z M342.2,104.1l69.3,34.7l-62,31.1
			l-67.6-34.1L342.2,104.1z M250,57.9l62.4,31.3l-59.8,31.9l-64.3-32.4L250,57.9z"/>
		<path class="st2" d="M236.9,243.6L186,218v110.6c0,0-62.3-132.5-68-144.4c-0.7-1.5-3.8-3.2-4.6-3.6c-11.2-5.9-43.9-22.4-43.9-22.4
			v195.5l45.3,24.2V275.6c0,0,61.6,118.4,62.2,119.7c0.6,1.3,6.8,13.8,13.4,18.2c8.8,5.8,46.5,28.5,46.5,28.5L236.9,243.6z"/>
	</g>
</g>
</svg>
