<?xml version="1.0" encoding="utf-8"?>
<!-- Generator: Adobe Illustrator 28.0.0, SVG Export Plug-In . SVG Version: 6.00 Build 0)  -->
<svg version="1.1" id="Слой_1" xmlns="http://www.w3.org/2000/svg" xmlns:xlink="http://www.w3.org/1999/xlink" x="0px" y="0px"
	 viewBox="0 0 500 500" style="enable-background:new 0 0 500 500;" xml:space="preserve">
<style type="text/css">
	.st0{fill:#4A4B8D;}
	.st1{fill:#23224D;}
	.st2{fill:#FEC905;}
	.st3{fill:#E21C84;}
</style>
<path class="st0" d="M380,500H120C53.7,500,0,446.3,0,380V120C0,53.7,53.7,0,120,0h260c66.3,0,120,53.7,120,120v260
	C500,446.3,446.3,500,380,500z"/>
<g>
	<path class="st1" d="M196.7,80.3h42v87.3h-42V80.3z M196.7,259.6h42v87.3h-42V259.6z"/>
	<path class="st2" d="M196.7,193.1h42v41.2h-42V193.1z"/>
	<path class="st1" d="M129.2,152.1h42v294.2h-42V152.1z M262.8,331.6h42v87.3h-42V331.6z M262.8,152.2h42v87.3h-42V152.2z"/>
	<path class="st3" d="M262.8,264.9h42v41.2h-42V264.9z"/>
	<path class="st1" d="M328.9,57.6h42v290h-42V57.6z"/>
</g>
</svg>
