<?xml version="1.0" encoding="utf-8"?>
<!-- Generator: Adobe Illustrator 28.0.0, SVG Export Plug-In . SVG Version: 6.00 Build 0)  -->
<svg version="1.1" id="Слой_1" xmlns="http://www.w3.org/2000/svg" xmlns:xlink="http://www.w3.org/1999/xlink" x="0px" y="0px"
	 viewBox="0 0 500 500" style="enable-background:new 0 0 500 500;" xml:space="preserve">
<style type="text/css">
	.st0{fill:#335C71;}
	.st1{fill:#132035;}
	.st2{fill:#53A0D8;}
</style>
<path class="st0" d="M380,500H120C53.7,500,0,446.3,0,380V120C0,53.7,53.7,0,120,0h260c66.3,0,120,53.7,120,120v260
	C500,446.3,446.3,500,380,500z"/>
<g>
	<path class="st1" d="M117.2,0h265.6C447.5,0,500,52.5,500,117.2v265.6c0,64.7-52.5,117.2-117.2,117.2H117.2
		C52.5,500,0,447.5,0,382.8V117.2C0,52.5,52.5,0,117.2,0z"/>
	<path class="st2" d="M84.9,367V113.4c0-1.7,0.7-2.7,2.5-2.7c4.2,0,8.1,0,13.8-0.2c5.9-0.2,12.1-0.2,18.7-0.5
		c6.7-0.2,13.8-0.2,21.4-0.5c7.6-0.2,15-0.2,22.4-0.2c20.2,0,37,2.5,50.8,7.6c12.3,4.2,23.7,11.1,33,20.2c7.9,7.9,14,17.5,18,28.1
		c3.7,10.4,5.7,21,5.7,32c0,21.2-4.9,38.7-14.8,52.5c-9.9,13.8-23.7,24.2-39.7,30.1c-16.8,6.2-35.2,8.4-55.5,8.4
		c-5.9,0-9.9,0-12.3-0.2c-2.5-0.2-5.9-0.2-10.6-0.2v79.1c0.2,1.7-1,3.2-2.7,3.5c-0.2,0-0.5,0-1,0H87.9
		C85.9,370.2,84.9,369.3,84.9,367z M138.7,158.3v82.8c3.5,0.2,6.7,0.5,9.6,0.5h13.1c9.6,0,19.2-1.5,28.3-4.4
		c7.9-2.2,14.8-6.9,20.2-13.1c5.2-6.2,7.6-14.5,7.6-25.4c0.2-7.6-1.7-15.3-5.7-21.9c-4.2-6.4-10.1-11.3-17.3-14
		c-9.1-3.7-19-5.2-29.1-4.9c-6.4,0-12.1,0-16.8,0.2C143.9,157.8,140.4,158,138.7,158.3z"/>
	<path class="st2" d="M425.1,226.1c-7.4-3.9-15.3-6.7-23.7-8.4c-9.1-2-18.2-3.2-27.6-3.2c-4.9-0.2-10.1,0.5-14.8,1.7
		c-3.2,0.7-5.9,2.5-7.6,4.9c-1.2,2-2,4.4-2,6.7s1,4.4,2.5,6.4c2.2,2.7,5.2,4.9,8.4,6.7c5.7,3,11.6,5.7,17.5,8.1
		c13.3,4.4,26.1,10.6,38,18c8.1,5.2,14.8,12.1,19.5,20.5c3.9,7.9,5.9,16.5,5.7,25.4c0.2,11.6-3.2,23.2-9.6,32.8
		c-6.9,9.9-16.5,17.5-27.6,21.9c-12.1,5.2-26.9,7.9-44.6,7.9c-11.3,0-22.4-1-33.5-3.2c-8.6-1.5-17.3-4.2-25.1-7.9
		c-1.7-1-3-2.7-2.7-4.7v-42.9c0-0.7,0.2-1.7,1-2.2s1.5-0.2,2.2,0.2c9.6,5.7,19.7,9.6,30.6,12.1c9.4,2.5,19.2,3.7,29.1,3.7
		c9.4,0,16-1.2,20.5-3.5c3.9-1.7,6.7-5.9,6.7-10.4c0-3.5-2-6.7-5.9-9.9c-3.9-3.2-12.1-6.9-24.2-11.6c-12.6-4.4-24.2-10.4-35-17.7
		c-7.6-5.4-14-12.6-18.7-21c-3.9-7.9-5.9-16.5-5.7-25.1c0-10.6,3-20.7,8.4-29.8c6.2-9.9,15.3-17.7,25.9-22.7
		c11.6-5.9,26.1-8.6,43.6-8.6c10.1,0,20.5,0.7,30.6,2.2c7.4,1,14.5,3,21.2,5.7c1,0.2,2,1.2,2.5,2.2c0.2,1,0.5,2,0.5,3v40.2
		c0,1-0.5,2-1.2,2.5C427.3,226.5,426.1,226.5,425.1,226.1z"/>
</g>
</svg>
