<?xml version="1.0" encoding="utf-8"?>
<!-- Generator: Adobe Illustrator 28.0.0, SVG Export Plug-In . SVG Version: 6.00 Build 0)  -->
<svg version="1.1" id="Слой_1" xmlns="http://www.w3.org/2000/svg" xmlns:xlink="http://www.w3.org/1999/xlink" x="0px" y="0px"
	 viewBox="0 0 500 500" style="enable-background:new 0 0 500 500;" xml:space="preserve">
<style type="text/css">
	.st0{fill:#498267;}
	.st1{clip-path:url(#SVGID_00000155849768480382881470000011227522583963607428_);}
	.st2{clip-path:url(#SVGID_00000183224154505292654220000000919037920756310188_);}
	.st3{fill:url(#SVGID_00000115498049880301493110000017042541652248702633_);}
	.st4{fill:url(#SVGID_00000001655865331656928680000017269167815637374092_);}
	.st5{fill:#32BDE7;}
	.st6{fill:url(#SVGID_00000031922458441025752060000006704151032001885863_);}
	.st7{fill:#020203;}
	.st8{fill:#FFFFFF;stroke:#020203;}
	.st9{fill:#020203;stroke:#020203;}
	.st10{fill:#FFFFFF;}
</style>
<path class="st0" d="M380,500H120C53.7,500,0,446.3,0,380V120C0,53.7,53.7,0,120,0h260c66.3,0,120,53.7,120,120v260
	C500,446.3,446.3,500,380,500z"/>
<g>
	<g>
		<defs>
			<rect id="SVGID_1_" y="4.2" width="500" height="500"/>
		</defs>
		<clipPath id="SVGID_00000036235787161230934090000008341578339009555123_">
			<use xlink:href="#SVGID_1_"  style="overflow:visible;"/>
		</clipPath>
		<g style="clip-path:url(#SVGID_00000036235787161230934090000008341578339009555123_);">
			<g>
				<defs>
					<rect id="SVGID_00000062878527682214597600000002289638934042217122_" x="57.6" y="61.9" width="382.8" height="382.8"/>
				</defs>
				<clipPath id="SVGID_00000135676422823620399040000001770840158451655585_">
					<use xlink:href="#SVGID_00000062878527682214597600000002289638934042217122_"  style="overflow:visible;"/>
				</clipPath>
				<g style="clip-path:url(#SVGID_00000135676422823620399040000001770840158451655585_);">
					
						<linearGradient id="SVGID_00000067221260489733918340000013966355893481800066_" gradientUnits="userSpaceOnUse" x1="315.8505" y1="762.6685" x2="280.2708" y2="379.8983" gradientTransform="matrix(1 0 0 -1 -47.6378 829.0551)">
						<stop  offset="0" style="stop-color:#5AB780"/>
						<stop  offset="0.3797" style="stop-color:#57B786"/>
						<stop  offset="1" style="stop-color:#53B68A"/>
					</linearGradient>
					<path style="fill:url(#SVGID_00000067221260489733918340000013966355893481800066_);" d="M80.5,120.7L58,369l130.3,75.3
						l27.3-31.5l191-135.6l30.3-61.8l-73-61L219.8,61.9L80.5,120.7z"/>
					
						<linearGradient id="SVGID_00000006692953613710554160000011927510783206117768_" gradientUnits="userSpaceOnUse" x1="416.7401" y1="744.5256" x2="186.4044" y2="450.5196" gradientTransform="matrix(1 0 0 -1 -47.6378 829.0551)">
						<stop  offset="0" style="stop-color:#AFCF6E"/>
						<stop  offset="0.8867" style="stop-color:#71BC79"/>
						<stop  offset="1" style="stop-color:#53B68A"/>
					</linearGradient>
					<path style="fill:url(#SVGID_00000006692953613710554160000011927510783206117768_);" d="M129.9,258.9L73.7,342l140.4,71.2
						L351.6,136l-9.4-73.8L258.4,136L129.9,258.9z"/>
					<path class="st5" d="M437,215.8l-73-60.3v129.6l43.1-7.9L437,215.8z"/>
					
						<linearGradient id="SVGID_00000179635308115279310690000005216071391797087622_" gradientUnits="userSpaceOnUse" x1="222.1558" y1="466.2127" x2="475.3387" y2="505.5374" gradientTransform="matrix(1 0 0 -1 -47.6378 829.0551)">
						<stop  offset="0" style="stop-color:#BAD36A"/>
						<stop  offset="0.9933" style="stop-color:#F4E951"/>
						<stop  offset="1" style="stop-color:#F3E850"/>
					</linearGradient>
					<path style="fill:url(#SVGID_00000179635308115279310690000005216071391797087622_);" d="M320.6,444.3l-152.4-44.2l5.6-28.8
						l194.4-137.1l24.7-9.4L440,405.3L320.6,444.3z"/>
					<path class="st7" d="M367,135.3H130.3V372H367V135.3z"/>
					<path class="st8" d="M196.6,166.8h-44.2v97.8h21v-29.2h22.5l4.9-0.8l5.6-1.5l5.6-2.2l3.7-2.2l3.7-3l3.7-4.1l3.7-6l1.9-5.6
						l0.7-7.1l-0.4-7.1l-1.5-6.4l-2.2-5.6l-2.6-4.1l-3.4-3.4l-3.4-2.6l-3.4-2.2l-3.4-1.5l-2.6-1.1l-3.4-0.7l-3.7-0.7L196.6,166.8z"
						/>
					<path class="st9" d="M192.8,185.9h-19.1v30h19.9l3.7-1.1l3.7-1.5l3-2.6l2.2-3.7l1.1-3.7v-4.9l-0.7-2.6l-1.5-3L203,190l-2.6-1.9
						l-3.4-1.5L192.8,185.9z"/>
					<path class="st10" d="M241.2,327.8h-88.4V342h88.4V327.8z"/>
					<path class="st8" d="M341.5,215.8L341.5,215.8L341.5,215.8c0,11-4.8,22.7-13,31.9c-9.2,10.3-22.5,17.6-37.9,17.6
						c-29.2,0-51.7-21-51.7-49.1c0-14.1,4.6-26.9,13.4-36.2c8.8-9.3,21.9-15.1,39.1-15.1c14.6,0,27.6,6.2,36.7,15.6
						C337.2,189.9,342.5,202.6,341.5,215.8z"/>
					<path class="st7" d="M320.9,214.7c-0.4,16.9-10.9,31.1-32.6,31.1c-17.8,0-27.7-15.2-27.7-31.1s11.1-29.6,28.8-29.6
						C307.3,185.1,321.3,197.5,320.9,214.7z"/>
					<path class="st9" d="M314.2,196.3l14.2-16.1l17.2,19.1v29.2l-17.2,19.1l-13.9-13.5L314.2,196.3z"/>
				</g>
			</g>
		</g>
	</g>
</g>
</svg>
