<?xml version="1.0" encoding="utf-8"?>
<!-- Generator: Adobe Illustrator 28.0.0, SVG Export Plug-In . SVG Version: 6.00 Build 0)  -->
<svg version="1.1" id="Слой_1" xmlns="http://www.w3.org/2000/svg" xmlns:xlink="http://www.w3.org/1999/xlink" x="0px" y="0px"
	 viewBox="0 0 256 256" style="enable-background:new 0 0 256 256;" xml:space="preserve">
<style type="text/css">
	.st0{fill:#2E4F6D;}
	.st1{fill:url(#SVGID_1_);}
	.st2{fill:url(#SVGID_00000150820027952659602530000016245343390951501247_);}
</style>
<path class="st0" d="M60,0h136c33.1,0,60,26.9,60,60v136c0,33.1-26.9,60-60,60H60c-33.1,0-60-26.9-60-60V60C0,26.9,26.9,0,60,0z"/>
<linearGradient id="SVGID_1_" gradientUnits="userSpaceOnUse" x1="46.6157" y1="210.4936" x2="145.7287" y2="112.3696" gradientTransform="matrix(1 0 0 -1 0 258)">
	<stop  offset="0" style="stop-color:#387EB8"/>
	<stop  offset="1" style="stop-color:#366994"/>
</linearGradient>
<path class="st1" d="M127.3,29c-50.8,0-47.6,22-47.6,22l0.1,22.8h48.5v6.8H60.5c0,0-32.5-3.7-32.5,47.5c0,51.2,28.4,49.4,28.4,49.4
	h16.9v-23.8c0,0-0.9-28.4,27.9-28.4h48.1c0,0,27,0.4,27-26.1V55.5C176.2,55.5,180.3,29,127.3,29z M100.6,44.3c4.8,0,8.7,3.9,8.7,8.7
	s-3.9,8.7-8.7,8.7c-4.8,0-8.7-3.9-8.7-8.7S95.7,44.3,100.6,44.3z"/>
<linearGradient id="SVGID_00000151531981134671881990000008646962016356656572_" gradientUnits="userSpaceOnUse" x1="107.4915" y1="147.4979" x2="213.9275" y2="46.8809" gradientTransform="matrix(1 0 0 -1 0 258)">
	<stop  offset="0" style="stop-color:#FFE052"/>
	<stop  offset="1" style="stop-color:#FFC331"/>
</linearGradient>
<path style="fill:url(#SVGID_00000151531981134671881990000008646962016356656572_);" d="M128.7,228c50.8,0,47.6-22,47.6-22
	l-0.1-22.8h-48.5v-6.8h67.7c0,0,32.5,3.7,32.5-47.5c0-51.2-28.4-49.4-28.4-49.4h-16.9v23.8c0,0,0.9,28.4-27.9,28.4h-48.1
	c0,0-27-0.4-27,26.1v43.9C79.8,201.4,75.7,228,128.7,228z M155.4,212.6c-4.8,0-8.7-3.9-8.7-8.7c0-4.8,3.9-8.7,8.7-8.7
	c4.8,0,8.7,3.9,8.7,8.7C164.2,208.7,160.3,212.6,155.4,212.6z"/>
</svg>
