<?xml version="1.0" encoding="utf-8"?>
<!-- Generator: Adobe Illustrator 28.0.0, SVG Export Plug-In . SVG Version: 6.00 Build 0)  -->
<svg version="1.1" id="Слой_1" xmlns="http://www.w3.org/2000/svg" xmlns:xlink="http://www.w3.org/1999/xlink" x="0px" y="0px"
	 viewBox="0 0 500 500" style="enable-background:new 0 0 500 500;" xml:space="preserve">
<style type="text/css">
	.st0{fill:#377989;}
	.st1{fill:#22BCEF;}
</style>
<path class="st0" d="M380,500H120C53.7,500,0,446.3,0,380V120C0,53.7,53.7,0,120,0h260c66.3,0,120,53.7,120,120v260
	C500,446.3,446.3,500,380,500z"/>
<g>
	<path class="st1" d="M226.9,446c-36.4-2.6-72.3-11.8-94.4-24c-12.6-7-22.1-15.6-25.9-23.2l-2.2-4.6V251.5V108.7l1.8-3.6
		c7.9-16,33.1-30.5,68.3-39.2c11.9-2.9,29.2-5.9,43.3-7.4c14.4-1.5,52.5-1.3,66.8,0.4c38.1,4.5,70.5,14.5,90.5,28
		c7.7,5.2,15.6,13.5,18.3,19.2l2.3,4.9l-0.2,142.3l-0.2,142.3l-1.8,3.7c-1,2.1-4.1,6.1-6.8,9c-16.6,17.6-52.2,30.6-99,36.2
		C278.1,445.8,236.7,446.7,226.9,446L226.9,446z M293.9,323.7c-0.1-0.4-5.6-5.2-12.1-10.8c-6.5-5.6-12.1-10.4-12.5-10.7
		s0.9-1.4,2.7-2.5c1.8-1.1,5.3-4,7.7-6.6c7.1-7.5,10.5-16.7,10.5-28.7c0-11.9-3.6-21.5-10.9-28.8c-7.3-7.4-15.7-10.5-27.9-10.5
		c-18.8,0-33.3,11-37.9,28.8c-1.6,6.1-1.6,18.5,0,23.9c4.2,14.2,15.5,24.5,29.6,26.9c4.8,0.8,5.4,1.2,8.7,4.7
		c1.9,2.1,5.9,6.3,8.8,9.4l5.3,5.5h14.1C287.9,324.4,294.1,324.1,293.9,323.7L293.9,323.7z M245.6,284.2c-3.4-1.8-4.7-3.1-6.6-7.1
		c-1.5-3-1.8-4.8-1.8-11.9c0-7.3,0.2-8.9,1.8-12c2.6-5.2,6.1-7.6,11.5-8c7.6-0.5,11.9,3.2,14.2,12.1c2.8,11-0.3,22.6-7,26.5
		C254.2,285.7,248.9,286,245.6,284.2L245.6,284.2z M183.1,304.6c14.8-2.8,23.2-11.4,23.2-23.7c0-10.9-5.4-17.3-20.4-24
		c-8.6-3.8-11.7-6.2-11.7-9c0-2.3,2.9-4.9,6.4-5.5c3.3-0.6,12.2,0.9,17.5,3l4.4,1.8v-9.7v-9.7l-4.8-1.1c-2.9-0.7-9.1-1-16.2-1
		c-10,0-12,0.2-15.8,1.7c-11,4.4-16.2,11.8-16.2,23c0.1,10.5,5.6,17,19.4,22.9c8.1,3.5,11.4,6.1,11.4,9.2c0,6.6-11.1,7.5-22.8,1.7
		c-3.2-1.6-6.1-3-6.4-3.2c-0.3-0.2-0.6,4.4-0.6,10.1c0,10.3,0,10.4,1.9,11.1C159.5,304.9,175.1,306.1,183.1,304.6z M352.1,295v-8.8
		h-13.4h-13.4V256v-30.1h-11.8h-11.8v38.9v38.9h25.2h25.2L352.1,295L352.1,295z M269.6,141.2c23.5-1.6,41.1-4.7,56.6-9.9
		c15.4-5.2,24.6-11.4,26.6-18.2c0.8-2.6,0.7-3.6-0.4-6.5c-4.9-12.9-32.5-22.8-74.5-26.8c-18-1.7-50.7-1.2-67.9,1.2
		c-26.2,3.5-47.4,10.1-56.9,17.6c-19.1,15.1,1.1,31.8,48.1,39.6C221.7,141.5,248.1,142.7,269.6,141.2L269.6,141.2z"/>
</g>
</svg>
