<?xml version="1.0" encoding="utf-8"?>
<!-- Generator: Adobe Illustrator 28.0.0, SVG Export Plug-In . SVG Version: 6.00 Build 0)  -->
<svg version="1.1" id="Слой_1" xmlns="http://www.w3.org/2000/svg" xmlns:xlink="http://www.w3.org/1999/xlink" x="0px" y="0px"
	 viewBox="0 0 500 500" style="enable-background:new 0 0 500 500;" xml:space="preserve">
<style type="text/css">
	.st0{fill:#335C71;}
	.st1{clip-path:url(#SVGID_00000168099579530992220170000010245009530597743265_);}
	.st2{fill:#D9D9D9;}
	.st3{fill:url(#SVGID_00000132076969497770885850000017468310500014205590_);}
	.st4{fill:#003B56;}
</style>
<path class="st0" d="M380,500H120C53.7,500,0,446.3,0,380V120C0,53.7,53.7,0,120,0h260c66.3,0,120,53.7,120,120v260
	C500,446.3,446.3,500,380,500z"/>
<g>
	<g>
		<defs>
			<path id="SVGID_1_" d="M147.3,57.6h205.8c50.2,0,90.8,40.7,90.8,90.8v205.8c0,50.2-40.7,90.8-90.8,90.8H147.3
				c-50.2,0-90.8-40.7-90.8-90.8V148.4C56.5,98.3,97.2,57.6,147.3,57.6z"/>
		</defs>
		<clipPath id="SVGID_00000111901701251314419590000009466157878635603602_">
			<use xlink:href="#SVGID_1_"  style="overflow:visible;"/>
		</clipPath>
		<g style="clip-path:url(#SVGID_00000111901701251314419590000009466157878635603602_);">
			<path class="st2" d="M147.3,57.6c-50.2,0-90.8,40.7-90.8,90.8v205.8c0,50.2,40.7,90.8,90.8,90.8h164.1c-2.7-7.9-4.8-20.5-6-34.8
				c-1-12.3-1.4-26-0.8-39.2c-0.2-1.9-0.2-3.2-0.2-3.2s-2.8-19.1-6.9-34.8c-1.8-7-3.9-13.3-6-16.9c-1.1-1.9,0.1-9.6,3.2-21.1
				c1.8,3.1,9.5,16.5,11,20.9c1.7,4.9,2.1,6.3,2.1,6.3s-4.2-21.6-11.1-34.2c1.5-5.1,3.3-10.7,5.4-16.7c2.4,4.2,7.8,13.8,9.8,18.4
				c0.2,0.4,0.3,0.8,0.5,1.1c0.3,0.8,0.5,1.5,0.7,2.1c1.1,3.2,1.4,4.2,1.4,4.2s-0.4-2.1-1.2-5.3c-0.3-1.4-0.7-3-1.2-4.7
				c-1.7-6.7-4.4-15.4-7.8-22.3c8.7-45.1,36.6-104.1,66.7-136c2.6-2.7,5.2-5.3,7.8-7.6c17.6-15.6,35.4-20.9,50.1-7.7
				c10.6,9.5,15,22.6,15,37.7v-2.7c0-50.2-40.7-90.8-90.8-90.8H147.3z"/>
			
				<linearGradient id="SVGID_00000011728966062208552330000006400380737596891321_" gradientUnits="userSpaceOnUse" x1="297.8665" y1="763.5209" x2="297.8665" y2="405.5561" gradientTransform="matrix(1 0 0 -1 -47.6378 829.0551)">
				<stop  offset="0" style="stop-color:#98D6F4"/>
				<stop  offset="0.9202" style="stop-color:#207FC2"/>
				<stop  offset="1" style="stop-color:#207FC2"/>
			</linearGradient>
			<path style="fill:url(#SVGID_00000011728966062208552330000006400380737596891321_);" d="M147.3,57.6
				c-50.2,0-90.8,40.7-90.8,90.8v205.8c0,50.2,40.7,90.8,90.8,90.8h164.1c-2.7-7.9-4.8-20.5-6-34.8c-1-12.3-1.4-26-0.8-39.2
				c-0.2-1.9-0.2-3.2-0.2-3.2s-2.8-19.1-6.9-34.8c-1.8-7-3.9-13.3-6-16.9c-1.1-1.9,0.1-9.6,3.2-21.1c1.8,3.1,9.5,16.5,11,20.9
				c1.7,4.9,2.1,6.3,2.1,6.3s-4.2-21.6-11.1-34.2c1.5-5.1,3.3-10.7,5.4-16.7c2.4,4.2,7.8,13.8,9.8,18.4c0.2,0.4,0.3,0.8,0.5,1.1
				c0.3,0.8,0.5,1.5,0.7,2.1c1.1,3.2,1.4,4.2,1.4,4.2s-0.4-2.1-1.2-5.3c-0.3-1.4-0.7-3-1.2-4.7c-1.7-6.7-4.4-15.4-7.8-22.3
				c8.7-45.1,36.6-104.1,66.7-136c2.6-2.7,5.2-5.3,7.8-7.6c17.6-15.6,35.4-20.9,50.1-7.7c10.6,9.5,15,22.6,15,37.7v-2.7
				c0-50.2-40.7-90.8-90.8-90.8H147.3z"/>
			<path class="st4" d="M428.9,113.5c-14.7-13.1-32.5-7.8-50.1,7.7c-2.6,2.3-5.2,4.9-7.8,7.6c-30.1,31.9-58,90.9-66.7,136
				c3.4,6.8,6,15.6,7.8,22.3c0.4,1.7,0.8,3.3,1.2,4.7c0.8,3.2,1.2,5.3,1.2,5.3s-0.3-1-1.4-4.2c-0.2-0.6-0.4-1.3-0.7-2.1
				c-0.1-0.3-0.3-0.7-0.5-1.1c-2-4.6-7.4-14.2-9.8-18.4c-2,6-3.8,11.7-5.4,16.7c6.9,12.6,11.1,34.2,11.1,34.2s-0.4-1.4-2.1-6.3
				c-1.5-4.3-9.2-17.7-11-20.9c-3.1,11.4-4.3,19.2-3.2,21.1c2.2,3.6,4.2,9.9,6,16.9c4.1,15.7,6.9,34.8,6.9,34.8s0.1,1.3,0.2,3.2
				c-0.6,13.2-0.2,26.8,0.8,39.2c1.4,16.3,3.9,30.4,7.1,37.9l2.2-1.2c-4.8-14.8-6.7-34.2-5.9-56.5c1.3-34.2,9.2-75.4,23.7-118.3
				c24.6-64.8,58.7-116.9,89.9-141.7c-28.4,25.7-66.9,108.7-78.5,139.5c-12.9,34.4-22,66.8-27.6,97.7c9.5-29,40.3-41.5,40.3-41.5
				s15.1-18.6,32.7-45.1c-10.6,2.4-27.9,6.5-33.7,9c-8.6,3.6-10.9,4.8-10.9,4.8s27.7-16.9,51.5-24.5
				C429.2,218.6,464.9,145.5,428.9,113.5"/>
			<path class="st4" d="M99.7,131.8c-4.6,0-8.4,1.4-11.3,4.1c-2.9,2.7-4.4,6.3-4.4,10.6c0,2.3,0.4,4.3,1.1,6.2
				c0.7,1.9,1.8,3.6,3.3,5.2c1.5,1.6,4.5,3.7,9,6.5c5.5,3.3,9.1,6,10.8,8.1c1.7,2.1,2.6,4.3,2.6,6.6c0,3.1-1,5.5-3.1,7.4
				c-2.1,1.8-4.9,2.8-8.4,2.8c-3.7,0-6.9-1.3-9.6-3.8c-2.8-2.5-4.1-5.9-4.2-10.1h-1.7v15.3h1.7c0.5-1.5,1.2-2.2,2.2-2.2
				c0.5,0,1.5,0.3,3.2,0.9c4,1.4,7.4,2.1,10,2.1c4.5,0,8.3-1.6,11.5-4.7c3.2-3.2,4.8-7,4.8-11.4c0-3.4-1.1-6.5-3.2-9.2
				c-2.1-2.7-6.2-5.8-12.2-9.4c-5.2-3.1-8.6-5.6-10.2-7.6c-1.6-2-2.4-4.1-2.4-6.5c0-2.6,1-4.7,2.9-6.2c1.9-1.5,4.4-2.3,7.5-2.3
				c3.5,0,6.4,1,8.7,3.1c2.3,2.1,3.6,4.9,4,8.6h1.7v-13.3h-1.6c-0.2,0.7-0.4,1.1-0.5,1.3c-0.2,0.2-0.5,0.3-0.9,0.3
				c-0.6,0-1.5-0.2-2.9-0.7C105,132.3,102.2,131.8,99.7,131.8z M155.6,131.8c-5.6,0-10.8,1.3-15.4,3.9c-4.6,2.6-8.3,6.3-11,10.9
				c-2.7,4.6-4.1,9.6-4.1,14.8c0,7.1,2.3,13.3,7.1,18.9c4.7,5.5,10.4,8.9,16.9,10.3c1.5,0.8,3.6,2.8,6.5,6c3.2,3.6,5.8,6.3,8.1,7.8
				c2.2,1.6,4.6,2.7,7.1,3.5c2.5,0.8,5.2,1.1,8.2,1.1c3.6,0,6.7-0.6,9.6-1.9l-0.6-1.5c-1.6,0.6-3.4,0.9-5.2,0.9
				c-2.5,0-5-0.8-7.5-2.4c-2.5-1.6-5.7-4.7-9.4-9.3c-1.8-2.2-3-3.6-3.7-4.1c7.2-1.4,13.1-4.8,17.7-10.3c4.6-5.5,6.9-11.8,6.9-18.8
				c0-8.3-3-15.4-9-21.1C171.7,134.6,164.4,131.8,155.6,131.8z M190.6,131.8l0.1,1.8c3.8,0,5.9,1.1,6.3,3.3c0.2,0.8,0.3,2.2,0.3,4.3
				l0,40c0,3-0.5,4.9-1.3,5.7c-0.8,0.8-2.2,1.3-4.3,1.5l-0.1,1.8h37.5l1-9.1h-1.7c-0.5,2.5-1.6,4.2-3.4,5.2c-1.8,1-5,1.5-9.5,1.5
				h-3.5c-4.1,0-6.5-1.5-7.1-4.4c-0.1-0.6-0.2-1.2-0.2-1.9l0.2-40.4c0-3,0.4-5,1.2-6c0.8-1,2.2-1.5,4.3-1.7l-0.1-1.8H190.6
				L190.6,131.8z M156.2,134c6.4,0,11.6,2.5,15.6,7.5c4,5,6,11.8,6,20.5c0,8.2-2,14.8-6.1,19.7c-4,4.9-9.4,7.4-16.1,7.4
				c-6.4,0-11.6-2.5-15.7-7.6c-4-5.1-6-11.7-6-19.9c0-8.4,2-15.1,6-20.1C144.1,136.4,149.5,134,156.2,134z M242.5,142.6
				c-0.9,0-1.6,0.3-2.1,0.9c-0.5,0.6-0.7,1.4-0.5,2.3c0.2,0.9,0.7,1.6,1.5,2.3c0.8,0.6,1.6,1,2.6,1c0.9,0,1.6-0.3,2-1
				c0.5-0.6,0.6-1.4,0.5-2.3c-0.2-0.9-0.7-1.6-1.4-2.3C244.2,142.9,243.3,142.6,242.5,142.6z M267.2,148.7
				c-1.6,5.9-4.9,9.1-10.1,9.6l0.1,1.7h6l-0.1,20c0,3.4,0.1,5.7,0.4,6.8c0.6,2.8,2.4,4.2,5.5,4.2c4.4,0,9.1-2.7,14-8l-1.5-1.2
				c-3.5,3.5-6.6,5.3-9.3,5.3c-1.7,0-2.7-0.9-3.1-2.8c-0.1-0.5-0.1-1-0.1-1.6l0.1-22.6h9.2l-0.1-2.7h-9.1v-8.6H267.2L267.2,148.7z
				 M302.8,156.2c-5.2,0-9.4,2.5-12.6,7.4c-3.2,4.9-4.3,10.4-3,16.4c0.8,3.5,2.2,6.2,4.5,8.2c2.3,1.9,5.2,2.9,8.7,2.9
				c3.2,0,7.7-0.8,9.6-2.4c1.9-1.6,3.6-4.3,5.3-7.9l-1.3-1.3c-2.6,4.7-7.8,7-11.7,7c-5.4,0-8.7-2.9-9.9-8.7
				c-0.2-0.7-0.3-1.5-0.4-2.4c6.4-1,11.3-2.8,14.5-5.3c3.3-2.6,6.6-5.3,5.9-8.2c-0.4-1.7-1.3-3-2.6-4.1
				C308.5,156.7,304.9,156.2,302.8,156.2z M246.5,156.4l-11.1,2.5v2l3.8-0.5c1.9,0,3,0.8,3.3,2.5c0.1,0.6,0.2,1.3,0.2,2.3l-0.1,17.9
				c0,2.5-0.3,3.9-0.9,4.4c-0.6,0.4-2.1,0.7-4.5,0.7l-0.1,1.7h17.6l0-1.7c-2.5,0-4-0.2-4.7-0.6c-0.7-0.4-1.2-1-1.4-2.1
				c-0.2-0.7-0.2-2-0.2-3.8l0.1-25.3H246.5L246.5,156.4z M300,159.7c1.1,0,2.1,0.4,3.2,1.2c1,0.8,1.7,1.7,1.9,2.7
				c1,4.8-3.3,8.1-12.9,9.9c-0.3-3.5,0.3-6.6,1.9-9.5C295.6,161.2,297.6,159.7,300,159.7z"/>
		</g>
	</g>
</g>
</svg>
