<?xml version='1.0' encoding='utf-8'?>
<svg xmlns="http://www.w3.org/2000/svg" viewBox="0 0 128 128"><rect x="0.0" y="0.0" width="128.0" height="128.0" fill="#999999" rx="20" ry="20" /><g transform="translate(12.799999999999997 12.799999999999997) scale(0.8)"><defs><linearGradient id="a" x1="128" x2="128" y1="0" y2="256" gradientTransform="scale(.5)" gradientUnits="userSpaceOnUse"><stop offset="0" stop-color="#2684ff" /><stop offset="1" stop-color="#0052cc" /></linearGradient></defs><path fill="url(#a)" d="M12.5 0h103c6.925 0 12.5 5.575 12.5 12.5v103c0 6.925-5.575 12.5-12.5 12.5h-103C5.575 128 0 122.425 0 115.5v-103C0 5.575 5.575 0 12.5 0Z" /><path fill="#fff" d="M78.32 16.64h27.04c3.324 0 6 2.676 6 6v44c0 3.324-2.676 6-6 6H78.32c-3.324 0-6-2.676-6-6v-44c0-3.324 2.676-6 6-6zm-55.68 0h27.04c3.324 0 6 2.676 6 6v76c0 3.324-2.676 6-6 6H22.64c-3.324 0-6-2.676-6-6v-76c0-3.324 2.676-6 6-6z" /></g></svg>