<?xml version="1.0" encoding="utf-8"?>
<!-- Generator: Adobe Illustrator 28.0.0, SVG Export Plug-In . SVG Version: 6.00 Build 0)  -->
<svg version="1.1" id="Слой_1" xmlns="http://www.w3.org/2000/svg" xmlns:xlink="http://www.w3.org/1999/xlink" x="0px" y="0px"
	 viewBox="0 0 500 500" style="enable-background:new 0 0 500 500;" xml:space="preserve">
<style type="text/css">
	.st0{fill:#010202;}
	.st1{fill:#FFFFFF;}
</style>
<path class="st0" d="M380,500H120C53.7,500,0,446.3,0,380V120C0,53.7,53.7,0,120,0h260c66.3,0,120,53.7,120,120v260
	C500,446.3,446.3,500,380,500z"/>
<g>
	<path class="st1" d="M250.2,57.6c-107,0-193.7,87-193.7,194.3s86.7,194.3,193.7,194.3c107,0,193.7-87,193.7-194.3
		S357.2,57.6,250.2,57.6L250.2,57.6z M250.2,66.1c49.4,0,96,19.4,130.9,54.4c34.9,34.9,54.4,82.2,54.3,131.4
		c0,49.6-19.3,96.3-54.3,131.4c-34.5,34.9-81.7,54.5-130.9,54.4c-49.2,0.1-96.4-19.5-130.9-54.4C84.4,348.4,64.8,301.1,65,251.9
		c0-49.6,19.3-96.3,54.3-131.4C153.8,85.6,201,66,250.2,66.1L250.2,66.1z M240.5,134.5c-31.5,8.4-60.7,24.5-99.7,68.9
		s-31.5,81.1-31.5,81.1s10.7-25.2,36.6-51.8c12.3-12.6,21.4-16.8,27.7-16.8c5.6-0.3,10.3,4.2,10.3,9.7v90.1
		c0,8.9-5.8,10.9-11.1,10.7c-4.5-0.1-8.7-1.6-8.7-1.6c26.5,38.3,90,43.7,90,43.7l27.9-29.6l0.6,0.6l25.5,21.6
		c46.7-27.6,69.2-78.7,69.2-78.7c-20.9,21.9-34.1,27-42,27c-7-0.1-9.7-4.1-9.7-4.1c-0.4-1.9-1-29.4-1.3-56.8
		c-0.3-28.4,0-56.9,1.4-56.9c8.1-15.1,33.8-45.4,33.8-45.4c-48,9.4-74.2,40.7-74.2,40.7c-7.8-6.1-23.5-5.1-23.5-5.1
		c7.4,4,14.8,15.8,14.8,25.6v95.9c0,0-16.1,14.1-28.5,14.1c-7.4,0-11.9-4-14.4-7.3c-1-1.3-1.8-2.7-2.4-4.2V187.6
		c-1.7,1.3-3.8,2-5.9,2c-2.7,0-5.4-1.3-7.3-5.2c-1.4-2.9-2.3-7.3-2.3-13.7C215.7,149,240.5,134.5,240.5,134.5L240.5,134.5z"/>
</g>
</svg>
