<?xml version="1.0" encoding="utf-8"?>
<!-- Generator: Adobe Illustrator 28.0.0, SVG Export Plug-In . SVG Version: 6.00 Build 0)  -->
<svg version="1.1" id="Слой_1" xmlns="http://www.w3.org/2000/svg" xmlns:xlink="http://www.w3.org/1999/xlink" x="0px" y="0px"
	 viewBox="0 0 500 500" style="enable-background:new 0 0 500 500;" xml:space="preserve">
<style type="text/css">
	.st0{fill:#AFACAA;}
	.st1{fill:#3A667D;}
	.st2{fill:#2689CA;}
	.st3{fill:#1571B4;}
	.st4{fill:#0B78BA;}
	.st5{fill:#3E99D4;}
</style>
<path class="st0" d="M380,500H120C53.7,500,0,446.3,0,380V120C0,53.7,53.7,0,120,0h260c66.3,0,120,53.7,120,120v260
	C500,446.3,446.3,500,380,500z"/>
<g>
	<path class="st1" d="M117.2,0h265.6C447.5,0,500,52.5,500,117.2v265.6c0,64.7-52.5,117.2-117.2,117.2H117.2
		C52.5,500,0,447.5,0,382.8V117.2C0,52.5,52.5,0,117.2,0z"/>
	<path class="st2" d="M65.9,195.7c0,0-9.2-6.7,1.8-15.6L93.6,157c0,0,7.4-7.8,15.2-1l238.6,180.6v86.6c0,0-0.1,13.6-17.6,12.1
		L65.9,195.7z"/>
	<path class="st3" d="M127.3,251.5l-61.5,55.9c0,0-6.3,4.7,0,13.1l28.6,26c0,0,6.8,7.3,16.8-1l65.2-49.4L127.3,251.5z"/>
	<path class="st4" d="M235.3,252l112.8-86.1l-0.7-86.2c0,0-4.8-18.8-20.9-9L176.4,207.3L235.3,252z"/>
	<path class="st5" d="M329.8,435.5c6.6,6.7,14.5,4.5,14.5,4.5l87.9-43.3c11.2-7.7,9.7-17.2,9.7-17.2V120.9
		c0-11.4-11.6-15.3-11.6-15.3L354,68.9c-16.6-10.3-27.5,1.8-27.5,1.8s14-10.1,20.9,9v341.9c0,2.4-0.5,4.7-1.5,6.7
		c-2,4-6.4,7.8-16.8,6.2L329.8,435.5z"/>
</g>
</svg>
